<?xml version="1.0" standalone="no"?>
<!DOCTYPE svg PUBLIC "-//W3C//DTD SVG 20010904//EN"
 "http://www.w3.org/TR/2001/REC-SVG-20010904/DTD/svg10.dtd">
<svg version="1.0" xmlns="http://www.w3.org/2000/svg"
 width="700.000000pt" height="700.000000pt" viewBox="0 0 700.000000 700.000000"
 preserveAspectRatio="xMidYMid meet">
<metadata>
Created by potrace 1.14, written by Peter Selinger 2001-2017
</metadata>
<g transform="translate(0.000000,700.000000) scale(0.100000,-0.100000)"
fill="#000000" stroke="none">
<path d="M4584 6851 c-528 -141 -896 -729 -908 -1451 -1 -58 1 -127 5 -155 4
-27 10 -69 13 -92 6 -48 14 -88 26 -123 4 -14 14 -45 21 -70 76 -261 268 -500
479 -597 166 -77 314 -85 468 -27 251 94 477 299 631 572 77 137 162 387 185
542 34 227 27 484 -18 705 -31 150 -134 345 -247 469 -179 196 -436 285 -655
227z"/>
<path d="M2158 6845 c-2 -2 -26 -5 -53 -9 -163 -19 -322 -119 -459 -290 -26
-32 -52 -68 -57 -80 -5 -11 -19 -37 -31 -56 -44 -74 -87 -198 -114 -330 -18
-93 -24 -353 -11 -480 7 -71 12 -97 29 -180 6 -30 12 -60 14 -66 16 -86 100
-307 152 -404 103 -190 280 -394 427 -491 159 -106 300 -160 425 -165 298 -10
578 209 703 551 64 174 82 282 82 490 0 168 -8 244 -39 395 -84 405 -299 758
-576 946 -90 61 -247 134 -320 149 -44 9 -168 23 -172 20z"/>
<path d="M6198 4830 c-108 -22 -142 -34 -243 -80 -276 -127 -495 -370 -658
-730 -42 -91 -95 -286 -111 -405 -3 -22 -10 -67 -15 -100 -9 -62 -7 -251 4
-295 3 -14 8 -40 11 -59 10 -61 61 -200 99 -269 96 -176 228 -291 392 -342
193 -60 455 -4 684 146 136 90 306 274 405 439 97 161 192 424 210 580 3 22 7
48 10 58 13 42 12 306 -1 385 -48 290 -216 537 -433 635 -26 11 -51 22 -57 23
-5 1 -30 7 -55 14 -69 19 -146 19 -242 0z"/>
<path d="M637 4704 c-1 -1 -23 -5 -48 -8 -25 -3 -70 -13 -100 -22 -55 -16
-190 -83 -213 -106 -7 -7 -28 -27 -47 -43 -152 -134 -231 -377 -224 -690 3
-146 15 -242 44 -352 96 -355 304 -664 578 -860 129 -92 319 -174 466 -202
221 -41 464 79 605 298 120 186 165 490 116 786 -51 308 -212 620 -434 845
-173 174 -397 310 -563 341 -53 9 -174 18 -180 13z"/>
<path d="M3362 3354 c-446 -66 -876 -294 -1170 -618 -113 -126 -278 -356 -404
-566 -45 -75 -168 -298 -168 -304 0 -3 -39 -90 -90 -201 -46 -98 -120 -331
-171 -531 -68 -271 -60 -404 35 -599 103 -209 299 -354 518 -383 231 -30 459
20 983 216 213 79 368 126 490 147 22 4 49 9 60 11 93 17 381 26 450 14 28 -5
66 -11 85 -14 122 -22 309 -82 525 -171 447 -182 460 -187 575 -209 338 -64
680 75 808 329 27 55 53 178 56 269 5 143 -39 362 -100 501 -7 17 -24 57 -37
90 -45 108 -149 319 -173 352 -13 17 -24 35 -24 38 0 4 -13 25 -28 48 -16 23
-86 129 -156 236 -403 611 -785 998 -1189 1207 -251 129 -582 182 -875 138z"/>
</g>
</svg>
