<?xml version="1.0" encoding="UTF-8" standalone="no"?>
<!-- Created with Inkscape (http://www.inkscape.org/) -->

<svg
   width="108.3422mm"
   height="79.870262mm"
   viewBox="0 0 108.3422 79.870263"
   version="1.1"
   id="svg5"
   xml:space="preserve"
   inkscape:version="1.2.2 (732a01da63, 2022-12-09)"
   sodipodi:docname="drawing-1.svg"
   xmlns:inkscape="http://www.inkscape.org/namespaces/inkscape"
   xmlns:sodipodi="http://sodipodi.sourceforge.net/DTD/sodipodi-0.dtd"
   xmlns="http://www.w3.org/2000/svg"
   xmlns:svg="http://www.w3.org/2000/svg"><sodipodi:namedview
     id="namedview7"
     pagecolor="#ffffff"
     bordercolor="#000000"
     borderopacity="0.25"
     inkscape:showpageshadow="2"
     inkscape:pageopacity="0.0"
     inkscape:pagecheckerboard="0"
     inkscape:deskcolor="#d1d1d1"
     inkscape:document-units="mm"
     showgrid="false"
     inkscape:zoom="1.4142136"
     inkscape:cx="117.37973"
     inkscape:cy="162.63456"
     inkscape:window-width="1920"
     inkscape:window-height="1017"
     inkscape:window-x="1912"
     inkscape:window-y="-8"
     inkscape:window-maximized="1"
     inkscape:current-layer="layer1" /><defs
     id="defs2"><style
       id="style27">.cls-1{fill:#006F65;}</style></defs><g
     inkscape:label="Layer 1"
     inkscape:groupmode="layer"
     id="layer1"
     transform="translate(-48.446681,-123.5628)"><g
       style="display:block"
       id="g38"
       transform="matrix(0.0787583,0,0,0.07642581,60.871015,109.76033)"><path
         class="cls-1"
         d="m 846.65064,390.1896 a 157.17,157.17 0 0 0 -12.73,-28.59 94.17,94.17 0 0 0 -22.38,-26.36 c -10.8,-8.7 -22.64,-13.11 -35.19,-13.11 v 0 a 58.53,58.53 0 0 0 -25.81,6.3 81.58,81.58 0 0 0 -22.92,16.6 c -36.41,37.71 -56.93,77.54 -62.73,121.78 -3.11,23.72 1.48,46.77 13.27,66.65 0.69,1.17 1.42,2.32 2.16,3.45 q -5.73,-5.93 -11.52,-11.87 a 543.91,543.91 0 0 1 -55.38,-67.15 114.69,114.69 0 0 0 -25.49,-26.63 76,76 0 0 0 24.15,3.91 80.44,80.44 0 0 0 42.12,-12.27 126.18,126.18 0 0 0 40.61,-40.75 c 17.35,-27.53 22.49,-58.86 15.7,-95.79 a 166.37,166.37 0 0 0 -35.33,-76.23 94.68,94.68 0 0 0 -26.66,-22 57.66,57.66 0 0 0 -27.86,-7.53 v 0 0 c -11.69,0 -22.92,3.88 -33.38,11.54 a 81.57,81.57 0 0 0 -19.66,20.34 c -24.44,36.38 -37.68,72.29 -40.16,109.14 -1.69,-19.67 -6.74,-39.36 -15.41,-60.05 -8.59,-20.51 -19.43,-44 -39.27,-62.9 -12.42,-11.84 -26.14,-17.84 -40.78,-17.84 v 0 a 56.52,56.52 0 0 0 -17.45,2.84 c -11.74,3.8 -22.28,10.92 -32.21,21.76 -21.34,23.29 -34.09,51.44 -40.13,88.58 -1.72,9.35 -2,22.09 -0.86,34.14 a 127.37,127.37 0 0 0 4.73,24.14 130.29,130.29 0 0 0 -20.75,-18.16 c -11.46,-8 -23.26,-12 -35.07,-12 a 54.78,54.78 0 0 0 -24.78,6.09 c -11,5.55 -20.34,14.2 -28.5,26.43 -17.52,26.28 -25.83,56.05 -26.11,93.68 -0.27,9.5 1.36,22.14 4.37,33.87 9.18,35.73 31.6,63.12 66.66,81.4 a 83.51,83.51 0 0 0 38.39,9.62 77.51,77.51 0 0 0 28.93,-5.61 c -30.56,26.91 -45.76,61.9 -46.42,106.73 -0.31,9.57 2.32,22.94 6.89,35 a 117.38,117.38 0 0 0 43.87,55.58 118.68,118.68 0 0 0 67,20.59 121.14,121.14 0 0 0 20.09,-1.68 c 10.16,-1.71 19.87,-4.21 29.26,-6.63 6.91,-1.79 13.44,-3.47 20,-4.82 15.8,-3.24 29.44,-4.82 41.71,-4.82 a 120.21,120.21 0 0 1 30.05,3.58 250.22,250.22 0 0 0 61.75,7.89 237.16,237.16 0 0 0 42.21,-3.81 c 33.87,-6.15 57.36,-21.17 71.83,-45.92 12.36,-21.13 18.31,-46.75 16.78,-72.13 a 123.08,123.08 0 0 0 -32.67,-76.88 c -6.47,-7 -13.06,-14 -19.7,-21 1.71,1.2 3.46,2.35 5.26,3.4 a 76.22,76.22 0 0 0 38.65,10.52 82,82 0 0 0 30.17,-5.87 126.34,126.34 0 0 0 47.12,-33 c 21.92,-24.07 32.47,-54 32.27,-91.55 a 159.94,159.94 0 0 0 -8.69,-52.6 z m -262.45,-166.59 a 61.59,61.59 0 0 1 14.88,-15.35 c 7,-5.13 14.22,-7.68 21.57,-7.68 a 37.83,37.83 0 0 1 18.25,5.07 c 16.7,9.16 27.35,24.06 36.37,40.17 a 140.05,140.05 0 0 1 15.55,44.07 c 5.55,30.07 2.61,56.94 -12.93,81.61 a 106.35,106.35 0 0 1 -34.19,34.38 60,60 0 0 1 -31.62,9.3 c -16.59,0 -32.71,-7.39 -45,-21.59 -12.61,-14.62 -19,-32.11 -19.92,-51.15 -1.99,-43.96 12.92,-82.92 37.04,-118.83 z m -56.73,123.7 a 102.69,102.69 0 0 0 24.49,59.34 87.06,87.06 0 0 0 12.37,11.82 94.64,94.64 0 0 0 -32.61,-5.64 v 0 a 115,115 0 0 0 -20.36,1.88 122.58,122.58 0 0 0 -25.75,7.6 82.28,82.28 0 0 0 16.61,-14.62 c 14.62,-16.81 23.07,-37.06 25.25,-60.38 z m -128.34,104.23 a 183.72,183.72 0 0 0 -14.05,-40.5 c 3.08,2.66 6.3,5.24 9.7,7.74 a 81.37,81.37 0 0 0 48.38,16.26 76.64,76.64 0 0 0 26.92,-4.81 115.62,115.62 0 0 0 -10.48,7.18 c -13.88,10.68 -25.84,24.84 -35.54,42.06 a 309.18,309.18 0 0 1 -32.32,47.14 c 10.93,-22.16 13.42,-47.36 7.39,-75.07 z m -37.24,-154.13 c 5.19,-32.08 15.8,-57.37 35.19,-78.49 6.59,-7.2 14.16,-13.18 23.62,-16.24 a 36.29,36.29 0 0 1 11.29,-1.87 c 10.13,0 19,4.71 27,12.32 16.44,15.66 26,35.66 34.62,56.15 7.76,18.51 13,37.82 14.22,57.89 1.51,24.88 -3.85,48.05 -20.67,67.39 -11.82,13.58 -27.7,20.5 -44,20.5 a 61.55,61.55 0 0 1 -36.55,-12.41 c -25.95,-19.08 -42.18,-43.93 -45.37,-76.47 -1.08,-10.97 -0.63,-21.92 0.65,-28.77 z m -70.81,248.46 c -28.55,-14.9 -48.39,-37 -56.53,-68.64 -2.74,-10.68 -4,-21.56 -3.75,-28.53 0.22,-32.5 6.84,-59.09 22.76,-83 5.42,-8.13 12,-15.19 20.86,-19.67 a 34.73,34.73 0 0 1 15.78,-4 c 8.22,0 16.08,3.17 23.64,8.43 18.64,13 31.19,31.26 42.8,50.2 10.49,17.1 18.63,35.39 22.91,55 5.29,24.36 3.54,48.08 -10.13,69.76 -11.34,18 -29.71,27.67 -49.19,27.67 a 63.09,63.09 0 0 1 -29.15,-7.22 z m 429.12,173.39 c -12.92,22.09 -33.86,31.92 -58.14,36.33 a 215.88,215.88 0 0 1 -38.64,3.45 229.13,229.13 0 0 1 -56.81,-7.33 141.07,141.07 0 0 0 -35,-4.2 c -15.25,0 -30.52,2.11 -45.73,5.23 -16.29,3.34 -32.14,8.55 -48.56,11.32 a 101.66,101.66 0 0 1 -16.77,1.4 98.33,98.33 0 0 1 -92.19,-63.28 c -3.93,-10.34 -5.84,-21.15 -5.59,-27.38 0.57,-42.32 15.16,-72.78 44.47,-96.28 30.78,-24.7 54.9,-54.93 74.24,-89.27 16.3,-28.93 40.08,-48.87 73.43,-54.9 a 94.23,94.23 0 0 1 16.8,-1.56 c 26.88,0 48.72,12.81 65.32,36.52 a 560.79,560.79 0 0 0 57.42,69.62 c 17.64,18.14 35.26,36.32 52.41,54.92 35.62,38.68 33.05,91.69 13.34,125.41 z m 88.09,-198.32 a 106.26,106.26 0 0 1 -39.69,27.85 61.91,61.91 0 0 1 -22.82,4.48 c -20.26,0 -39,-10.67 -50.42,-30 -9.84,-16.6 -13.11,-35 -10.64,-53.85 5.73,-43.63 27.24,-79.37 57.29,-110.49 a 61.81,61.81 0 0 1 17.33,-12.51 38.55,38.55 0 0 1 17,-4.26 c 7.91,0 15.48,2.91 22.65,8.68 14.83,12 22.7,28.49 28.76,45.93 a 140.23,140.23 0 0 1 7.58,46.11 c 0.19,30.56 -7.41,56.5 -27.04,78.06 z"
         id="path31" /></g><path
       d="m 53.828749,197.53137 q -1.341919,0 -2.55397,-0.23136 a 3.6733876,2.3097392 0 0 1 -1.532381,-0.58683 5.0040491,3.1464278 0 0 1 -0.545427,-0.40666 81.901912,51.497983 0 0 1 0.481357,-1.35764 103.62277,65.15555 0 0 1 0.579192,-1.45942 186.88045,117.50601 0 0 1 1.271791,-2.9042 204.3046,128.4619 0 0 1 0.09175,-0.19877 q 0.73589,-1.59226 1.493425,-3.13007 a 349.19085,219.56295 0 0 1 0.741083,-1.48666 284.14081,178.66103 0 0 1 0.709052,-1.38486 q 0.595637,-1.1459 1.09431,-2.05118 a 123.89783,77.90402 0 0 1 0.161022,-0.2896 q 0.562737,-1.00707 0.865751,-1.52423 a 8.0350483,5.0522482 0 0 1 0.07619,-0.12138 q 0.08917,-0.13887 0.22424,-0.33154 a 37.391848,23.511109 0 0 1 0.132451,-0.18661 11.05133,6.9488146 0 0 1 0.502999,-0.61347 12.930012,8.1300869 0 0 1 0.232879,-0.2439 q 0.432876,-0.43548 0.995615,-0.7485 0.562738,-0.31299 1.212055,-0.31299 a 1.8379924,1.1556862 0 0 1 0.738484,0.10122 2.6085121,1.6401706 0 0 1 0.473571,0.17098 110.79986,69.668332 0 0 0 -1.347114,2.06205 142.0544,89.320433 0 0 0 -1.358364,2.26565 q -1.363561,2.36796 -2.618903,4.88566 a 219.47084,137.99807 0 0 0 -2.031052,4.31246 200.22603,125.89739 0 0 0 -0.263178,0.60044 q -1.038903,2.3952 -1.731503,4.35491 0.599097,0.054 1.007735,0.081 a 14.645934,9.2090172 0 0 0 0.0095,5.4e-4 q 0.411235,0.0272 0.844111,0.0272 2.770406,0 5.346023,-0.80293 2.57561,-0.80294 4.804923,-2.20468 a 25.153571,15.815971 0 0 0 3.811909,-3.09908 27.895408,17.539974 0 0 0 0.105618,-0.11275 q 1.688216,-1.81002 2.618899,-3.83776 0.930686,-2.02775 0.930686,-4.04191 a 17.988605,11.310809 0 0 0 -0.1515,-1.51442 q -0.261441,-1.21502 -0.973969,-2.11922 a 8.2748619,5.2030374 0 0 0 -1.335856,-1.23733 6.9173619,4.3494735 0 0 0 -1.780853,-0.87206 8.8427953,5.5601406 0 0 0 -2.968665,-0.60696 11.48334,7.2204527 0 0 0 -1.663112,-0.0735 12.119668,7.6205607 0 0 0 -2.98771,0.2243 10.277347,6.4621527 0 0 0 -2.076939,0.48339 9.6877696,6.0914404 0 0 0 -2.389478,1.04463 8.5995188,5.407174 0 0 0 -1.160109,0.86064 q -1.298628,1.1976 -1.298628,2.69458 a 7.0307753,4.4207852 0 0 0 0.01206,0.26894 q 0.01206,0.12365 0.0355,0.2319 a 3.8889597,2.4452859 0 0 0 0.01734,0.0708 7.5536898,4.7495816 0 0 0 0.0658,0.21775 q 0.03462,0.10225 0.07444,0.19216 a 4.5677099,2.8720679 0 0 0 0.01098,0.0255 4.5062414,2.8334179 0 0 1 -0.699528,-0.0315 q -0.883934,-0.0876 -1.313346,-0.41753 a 2.5790765,1.6216624 0 0 1 -0.580054,-0.97331 3.2794703,2.0620534 0 0 1 -0.0043,-0.10185 4.7209478,2.9684204 0 0 1 0.383526,-1.15079 6.7061184,4.2166486 0 0 1 0.677021,-0.76809 q 1.060546,-0.96624 2.943558,-1.78281 1.883012,-0.81654 4.350405,-1.32007 a 16.693439,10.496439 0 0 1 4.720948,-0.49918 18.880329,11.871505 0 0 1 0.516853,-0.004 q 3.895887,0 6.255064,0.99345 2.359177,0.99347 3.44137,2.68102 a 14.832072,9.3260551 0 0 1 0.954061,2.39085 18.643113,11.722349 0 0 1 0.128171,1.39247 q 0,2.368 -1.168771,4.53184 -1.168766,2.16385 -3.224928,3.97387 -2.05616,1.81002 -4.696705,3.1573 -2.640546,1.3473 -5.649033,2.09581 a 16.594742,10.434383 0 0 1 -4.897563,0.72183 15.432036,9.7032999 0 0 1 -1.141063,0.0267 z m 54.109511,-6.77736 0.56274,0.2722 q -0.64931,1.22481 -2.07779,2.23189 a 19.175551,12.057132 0 0 1 -2.54964,1.50572 17.405954,10.944451 0 0 1 -0.50214,0.23623 26.359564,16.574269 0 0 1 -1.27265,0.54329 q -0.64413,0.25694 -1.23631,0.45456 a 13.954197,8.7740688 0 0 1 -0.45624,0.14525 q -1.212057,1.82361 -2.553957,3.33422 a 22.542463,14.174167 0 0 1 -1.02161,1.04683 q -0.86401,0.80076 -1.77045,1.36198 a 5.7884209,3.6396221 0 0 1 -1.05536,0.52534 3.8803024,2.4398424 0 0 1 -2.03971,0.37288 q -0.95232,0 -1.731509,-0.36746 -0.684811,-0.32281 -0.767919,-1.01415 a 4.1737923,2.6243819 0 0 1 -0.01146,-0.1971 q 0,-0.81654 0.800821,-1.5106 a 8.8453925,5.5617737 0 0 1 1.246687,-0.86392 10.956963,6.8894791 0 0 1 0.80947,-0.41533 20.25601,12.736501 0 0 1 2.28819,-0.91946 22.766692,14.315157 0 0 1 0.46057,-0.15574 785.81749,494.10345 0 0 1 1.45535,-0.47632 667.11941,419.4689 0 0 1 1.38,-0.44909 40.055769,25.18612 0 0 0 0.73242,-1.24933 47.733261,30.013544 0 0 0 0.41469,-0.80565 59.816568,37.611243 0 0 0 0.5359,-1.16004 77.650203,48.824611 0 0 0 0.524657,-1.27599 24.912026,15.664093 0 0 1 -1.683017,1.37124 18.6864,11.749566 0 0 1 -1.75834,1.11922 q -1.41898,0.78443 -2.85094,0.94993 a 4.2292008,2.6592214 0 0 1 -0.76359,0.0436 q -1.55835,0 -2.40246,-0.7349 a 4.249113,2.6717418 0 0 1 -0.67096,-0.93412 q -0.173164,-0.44093 -0.173164,-0.97115 0,-1.41533 1.103854,-2.69459 1.10383,-1.27929 2.87862,-2.25914 a 15.348927,9.6510398 0 0 1 2.78426,-1.23242 13.774986,8.6613858 0 0 1 0.98176,-0.30539 11.319713,7.1175679 0 0 1 1.67781,-0.37887 q 0.964427,-0.16235 1.860507,-0.17756 a 6.8403099,4.3010252 0 0 1 0.18442,-0.002 q 1.06659,0 1.61723,0.18661 a 1.3652915,0.85846311 0 0 1 0.1792,0.0719 1.6336749,1.027216 0 0 1 0.29696,0.18022 1.083922,0.68154454 0 0 1 0.24412,0.43223 1.1263439,0.70821843 0 0 1 -0.0252,0.15451 q -0.0371,0.10514 -0.12989,0.18187 a 0.6700924,0.42133824 0 0 1 -0.0615,0.0447 4.8135834,3.0266674 0 0 1 -0.0885,0.0546 q -0.12205,0.0729 -0.18957,0.10021 a 0.28136953,0.1769185 0 0 1 -0.0252,0.008 1.157511,0.72781554 0 0 0 -0.49174,-0.27221 1.5150667,0.95263831 0 0 0 -0.15756,-0.0406 2.420644,1.5220436 0 0 0 -0.38785,-0.0615 q -0.19306,-0.0212 -0.41555,-0.0288 a 4.9737476,3.1273749 0 0 0 -0.27881,-0.004 5.8576807,3.6831712 0 0 0 -2.671697,0.41317 7.2749177,4.574296 0 0 0 -0.59647,0.21285 10.836623,6.8138122 0 0 0 -2.7159,1.54492 12.197587,7.6695535 0 0 0 -0.0762,0.0609 15.14201,9.5209382 0 0 0 -1.53844,1.50843 13.437346,8.4490845 0 0 0 -0.38784,0.51932 10.059178,6.3249728 0 0 0 -0.46233,0.82256 q -0.25193,0.57918 -0.25193,1.09633 a 4.2075568,2.6456122 0 0 0 0.038,0.36909 q 0.0424,0.18785 0.13077,0.34021 a 1.7193842,1.0811082 0 0 0 0.24239,0.28416 q 0.41124,0.34024 1.10385,0.34024 a 2.4621998,1.5481731 0 0 0 0.89951,-0.11809 q 0.73417,-0.18187 1.60164,-0.64288 a 11.752589,7.3897499 0 0 0 0.50733,-0.28688 q 1.75315,-1.04791 3.398067,-2.54491 0.12988,-0.38106 0.23809,-0.68045 a 100.91903,63.455499 0 0 1 0.058,-0.16007 q 0.0875,-0.23789 0.20605,-0.55634 a 301.99348,189.88636 0 0 1 0.0174,-0.0457 q 0.0944,-0.27654 0.38265,-0.61784 a 7.2290329,4.5454448 0 0 1 0.24505,-0.26675 1.6302118,1.0250387 0 0 1 1.19472,-0.48555 2.5253999,1.5879117 0 0 1 0.38528,-0.0186 q 0.21645,0 0.43287,0.0145 0.20257,0.0123 0.44327,0.0616 a 3.0604348,1.9243291 0 0 1 0.0329,0.006 3.9677434,2.4948232 0 0 1 -0.0225,0.24388 q -0.0736,0.4627 -0.38872,1.34838 a 41.867787,26.325474 0 0 1 -0.35668,0.92107 q -0.33852,0.81275 -0.81209,1.77356 a 78.880438,49.598153 0 0 1 -1.27007,2.36036 89.285048,56.140327 0 0 1 -0.48309,0.81054 14.569747,9.1611129 0 0 0 2.10639,-0.79096 16.845811,10.592247 0 0 0 0.68569,-0.32498 q 1.36356,-0.68045 2.48902,-1.56505 1.1255,-0.8846 1.77481,-1.91888 z m 16.83888,0 0.56277,0.2722 q -0.64932,1.22481 -2.07783,2.23189 a 19.175551,12.057132 0 0 1 -2.54964,1.50572 17.405954,10.944451 0 0 1 -0.50213,0.23623 26.359564,16.574269 0 0 1 -1.27266,0.54329 q -0.64412,0.25694 -1.2363,0.45456 a 13.954197,8.7740688 0 0 1 -0.45625,0.14525 q -1.21203,1.82361 -2.55397,3.33422 a 22.542463,14.174167 0 0 1 -1.0216,1.04683 q -0.86401,0.80076 -1.77043,1.36198 a 5.7884209,3.6396221 0 0 1 -1.05538,0.52534 3.8803024,2.4398424 0 0 1 -2.03972,0.37288 q -0.95231,0 -1.73146,-0.36746 -0.68485,-0.32281 -0.76796,-1.01415 a 4.1737923,2.6243819 0 0 1 -0.0108,-0.1971 q 0,-0.81654 0.80082,-1.5106 a 8.8453925,5.5617737 0 0 1 1.24668,-0.86392 10.956963,6.8894791 0 0 1 0.8095,-0.41533 20.25601,12.736501 0 0 1 2.28816,-0.91946 22.766692,14.315157 0 0 1 0.4606,-0.15574 785.81749,494.10345 0 0 1 1.45531,-0.47632 667.11941,419.4689 0 0 1 1.38003,-0.44909 40.055769,25.18612 0 0 0 0.73244,-1.24933 47.733261,30.013544 0 0 0 0.41467,-0.80565 59.816568,37.611243 0 0 0 0.53591,-1.16004 77.650203,48.824611 0 0 0 0.52464,-1.27599 24.912026,15.664093 0 0 1 -1.683,1.37124 18.6864,11.749566 0 0 1 -1.75836,1.11922 q -1.41895,0.78443 -2.85091,0.94993 a 4.2292008,2.6592214 0 0 1 -0.76363,0.0436 q -1.55835,0 -2.40244,-0.7349 a 4.249113,2.6717418 0 0 1 -0.67064,-0.93413 q -0.1731,-0.44092 -0.1731,-0.97115 0,-1.41533 1.10387,-2.69459 1.10381,-1.27929 2.87862,-2.25913 a 15.348927,9.6510398 0 0 1 2.78427,-1.23243 13.774986,8.6613858 0 0 1 0.98172,-0.30539 11.319713,7.1175679 0 0 1 1.67785,-0.37887 q 0.96444,-0.16235 1.86051,-0.17756 a 6.8403099,4.3010252 0 0 1 0.18455,-0.002 q 1.0666,0 1.61721,0.18661 a 1.3652915,0.85846311 0 0 1 0.17932,0.0719 1.6336749,1.027216 0 0 1 0.2968,0.18023 1.083922,0.68154454 0 0 1 0.2441,0.43223 1.1263439,0.70821843 0 0 1 -0.0263,0.1545 q -0.0371,0.10514 -0.12989,0.18187 a 0.6700924,0.42133824 0 0 1 -0.0616,0.0447 4.8135834,3.0266674 0 0 1 -0.0885,0.0546 q -0.12193,0.0728 -0.18948,0.1002 a 0.28136953,0.1769185 0 0 1 -0.0262,0.008 1.157511,0.72781554 0 0 0 -0.49177,-0.27221 1.5150667,0.95263831 0 0 0 -0.15741,-0.0406 2.420644,1.5220436 0 0 0 -0.38784,-0.0615 q -0.19305,-0.0212 -0.41556,-0.0287 a 4.9737476,3.1273749 0 0 0 -0.27879,-0.004 5.8576807,3.6831712 0 0 0 -2.67169,0.41318 7.2749177,4.574296 0 0 0 -0.59651,0.21284 10.836623,6.8138122 0 0 0 -2.71587,1.54492 12.197587,7.6695535 0 0 0 -0.0764,0.0609 15.14201,9.5209382 0 0 0 -1.53842,1.50844 13.437346,8.4490845 0 0 0 -0.38788,0.51931 10.059178,6.3249728 0 0 0 -0.46229,0.82256 q -0.25196,0.57919 -0.25196,1.09633 a 4.2075568,2.6456122 0 0 0 0.0378,0.3691 q 0.0426,0.18784 0.13091,0.3402 a 1.7193842,1.0811082 0 0 0 0.24247,0.28416 q 0.41119,0.34024 1.10384,0.34024 a 2.4621998,1.5481731 0 0 0 0.89948,-0.11809 q 0.73416,-0.18187 1.60165,-0.64288 a 11.752589,7.3897499 0 0 0 0.50735,-0.28688 q 1.75314,-1.04791 3.39809,-2.54491 0.12988,-0.38106 0.23819,-0.68046 a 100.91903,63.455499 0 0 1 0.058,-0.16006 q 0.0874,-0.23789 0.20617,-0.55634 a 301.99348,189.88636 0 0 1 0.0163,-0.0457 q 0.0942,-0.27653 0.38266,-0.61784 a 7.2290329,4.5454448 0 0 1 0.24507,-0.26675 1.6302118,1.0250387 0 0 1 1.19476,-0.48554 2.5253999,1.5879117 0 0 1 0.38526,-0.0186 q 0.21662,0 0.43287,0.0145 0.20254,0.0123 0.44324,0.0616 a 3.0604348,1.9243291 0 0 1 0.0327,0.006 3.9677434,2.4948232 0 0 1 -0.0228,0.24388 q -0.0735,0.46271 -0.38872,1.34839 a 41.867787,26.325474 0 0 1 -0.35665,0.92106 q -0.33851,0.81275 -0.81208,1.77356 a 78.880438,49.598153 0 0 1 -1.27006,2.36036 89.285048,56.140327 0 0 1 -0.4831,0.81054 14.569747,9.1611129 0 0 0 2.10638,-0.79096 16.845811,10.592247 0 0 0 0.68567,-0.32498 q 1.36356,-0.68044 2.48906,-1.56505 1.12548,-0.8846 1.77475,-1.91887 z m -33.634457,0.0816 0.51945,0.27218 a 7.1173506,4.4752218 0 0 1 -0.76793,0.86991 4.9252656,3.0968906 0 0 1 -1.677825,0.94011 q -1.494294,0.5019 -2.853518,0.52913 a 4.879381,3.0680393 0 0 1 -0.154964,0.002 5.32178,3.3462094 0 0 1 -1.017257,-0.0598 4.923534,3.0958017 0 0 1 -0.06488,-0.008 q -0.519445,-0.0681 -0.995621,-0.2041 a 17.02762,10.706564 0 0 1 -2.001611,1.40172 14.444214,9.0821804 0 0 1 -1.223307,0.63966 7.9138428,4.9760373 0 0 1 -1.23283,0.47741 q -0.757533,0.23243 -1.494295,0.30591 a 4.2975953,2.7022263 0 0 1 -0.670957,0.033 4.7443234,2.9831184 0 0 1 -0.96098,-0.0572 q -0.574862,-0.0745 -1.002541,-0.24767 a 2.349652,1.4774057 0 0 1 -0.67703,-0.41647 q -0.779168,-0.72126 -0.779168,-1.75555 a 9.1302251,5.7408696 0 0 1 0.233756,-1.26838 10.847878,6.8208892 0 0 1 0.199114,-0.47361 q 0.432873,-0.8982 1.147119,-1.68752 a 9.2375787,5.808371 0 0 1 0.707327,-0.67393 6.7892308,4.2689075 0 0 1 0.894313,-0.60533 3.7651572,2.3674418 0 0 1 0.612956,-0.2787 q 0.586975,-0.21122 1.183487,-0.21122 0.216451,0 0.454523,0.0406 a 4.2170802,2.6516002 0 0 1 0.42768,0.0887 3.8837652,2.4420197 0 0 1 0.0269,0.006 q -0.389584,0.21773 -0.930682,0.80292 a 14.408717,9.0598611 0 0 0 -0.584386,0.70497 18.728823,11.776241 0 0 0 -0.432871,0.62873 22.80565,14.339653 0 0 0 -0.780047,1.43768 21.003155,13.206286 0 0 0 -0.021,0.0457 q -0.324665,0.7349 -0.324665,1.25204 0,0.71475 0.331582,1.08545 a 1.4925573,0.93848457 0 0 0 0.101275,0.0986 1.5211271,0.95644868 0 0 0 0.386133,0.23463 1.3185408,0.82906742 0 0 0 0.739351,0.13292 q 0.909046,0 2.16439,-0.61242 a 12.970704,8.1556711 0 0 0 1.321993,-0.74631 17.542741,11.030461 0 0 0 1.145394,-0.81874 6.2784365,3.9477323 0 0 1 -1.538445,-1.18999 7.7666652,4.8834953 0 0 1 -0.344572,-0.4567 q -0.670945,-1.0207 -0.670945,-2.0822 a 7.2636629,4.5672195 0 0 1 0.408632,-1.53837 6.9147648,4.3478405 0 0 1 0.08919,-0.14917 5.1339119,3.2280824 0 0 1 0.702983,-0.78825 4.4084114,2.7719048 0 0 1 0.747148,-0.4774 3.4768619,2.1861686 0 0 1 1.914175,-0.46597 4.4742085,2.8132766 0 0 1 0.380076,-0.0103 q 1.774788,0 2.380809,0.59879 0.580934,0.57379 0.605173,1.42244 a 6.5953018,4.1469699 0 0 1 8.66e-4,0.0745 8.2047357,5.1589437 0 0 1 -0.180964,1.04628 q -0.204307,0.62164 -0.641524,1.30809 -0.822457,1.29287 -2.077802,2.49047 0.779184,0.27218 1.644929,0.27218 0.5991,0 1.328066,-0.1323 a 7.3199369,4.6026031 0 0 0 0.23029,-0.0447 4.7209478,2.9684204 0 0 0 0.993878,-0.29069 6.2663162,3.9401114 0 0 0 0.715987,-0.32171 4.5581864,2.8660798 0 0 0 0.958392,-0.69082 5.9252095,3.7256315 0 0 0 0.40517,-0.47958 z m 49.477717,0 0.51948,0.27218 a 7.1173506,4.4752218 0 0 1 -0.76792,0.86991 4.9252656,3.0968906 0 0 1 -1.67785,0.94011 q -1.49427,0.5019 -2.85348,0.52913 a 4.879381,3.0680393 0 0 1 -0.15512,0.002 5.32178,3.3462094 0 0 1 -1.01726,-0.0598 4.923534,3.0958017 0 0 1 -0.0648,-0.008 q -0.51943,-0.0681 -0.9956,-0.2041 a 17.02762,10.706564 0 0 1 -2.00163,1.40172 14.444214,9.0821804 0 0 1 -1.2233,0.63966 7.9138428,4.9760373 0 0 1 -1.23282,0.47741 q -0.75754,0.23243 -1.4943,0.30591 a 4.2975953,2.7022263 0 0 1 -0.67095,0.033 4.7443234,2.9831184 0 0 1 -0.961,-0.0572 q -0.57485,-0.0745 -1.00253,-0.24767 a 2.349652,1.4774057 0 0 1 -0.67701,-0.41647 q -0.7792,-0.72126 -0.7792,-1.75555 a 9.1302251,5.7408696 0 0 1 0.23363,-1.26838 10.847878,6.8208892 0 0 1 0.19928,-0.47361 q 0.4329,-0.8982 1.14714,-1.68752 a 9.2375787,5.808371 0 0 1 0.7073,-0.67393 6.7892308,4.2689075 0 0 1 0.89433,-0.60533 3.7651572,2.3674418 0 0 1 0.61295,-0.2787 q 0.58698,-0.21122 1.1835,-0.21122 0.21629,0 0.45449,0.0406 a 4.2170802,2.6516002 0 0 1 0.42769,0.0887 3.8837652,2.4420197 0 0 1 0.0261,0.006 q -0.38959,0.21773 -0.93071,0.80292 a 14.408717,9.0598611 0 0 0 -0.58435,0.70497 18.728823,11.776241 0 0 0 -0.43287,0.62873 22.80565,14.339653 0 0 0 -0.78004,1.43768 21.003155,13.206286 0 0 0 -0.0196,0.0457 q -0.32458,0.7349 -0.32458,1.25204 0,0.71475 0.33154,1.08545 a 1.4925573,0.93848457 0 0 0 0.10144,0.0986 1.5211271,0.95644868 0 0 0 0.38615,0.23463 1.3185408,0.82906742 0 0 0 0.73936,0.13292 q 0.90903,0 2.16437,-0.61242 a 12.970704,8.1556711 0 0 0 1.32201,-0.74631 17.542741,11.030461 0 0 0 1.14538,-0.81874 6.2784365,3.9477323 0 0 1 -1.53842,-1.18999 7.7666652,4.8834953 0 0 1 -0.34459,-0.4567 q -0.67095,-1.0207 -0.67095,-2.0822 a 7.2636629,4.5672195 0 0 1 0.40862,-1.53837 6.9147648,4.3478405 0 0 1 0.089,-0.14917 5.1339119,3.2280824 0 0 1 0.703,-0.78825 4.4084114,2.7719048 0 0 1 0.74715,-0.4774 3.4768619,2.1861686 0 0 1 1.91417,-0.46597 4.4742085,2.8132766 0 0 1 0.3801,-0.0103 q 1.77476,0 2.38079,0.59879 0.58092,0.57379 0.60515,1.42244 a 6.5953018,4.1469699 0 0 1 9.1e-4,0.0745 8.2047357,5.1589437 0 0 1 -0.18097,1.04628 q -0.20416,0.62164 -0.64155,1.30809 -0.82242,1.29287 -2.07779,2.49047 0.77918,0.27218 1.64493,0.27218 0.59911,0 1.32806,-0.1323 a 7.3199369,4.6026031 0 0 0 0.23037,-0.0447 4.7209478,2.9684204 0 0 0 0.99389,-0.29069 6.2663162,3.9401114 0 0 0 0.71596,-0.32171 4.5581864,2.8660798 0 0 0 0.95842,-0.69082 5.9252095,3.7256315 0 0 0 0.40515,-0.47958 z m 5.3677,-4.24604 v -0.32662 a 7.5787971,4.7653682 0 0 1 0.0335,-0.46706 q 0.10145,-0.64563 0.50734,-0.96189 0.33765,-0.26292 0.70038,-0.36201 a 1.1124919,0.69950858 0 0 1 0.44676,-0.0599 1.1038343,0.69406494 0 0 1 0.19468,0.0103 q 0.20418,0.0229 0.32461,0.0986 0.17307,0.10885 0.17307,0.24496 0,0.136 -0.12987,0.43549 -0.12989,0.29942 -0.12989,0.76211 0,0.8982 0.56276,1.94612 0.56273,1.04788 1.12548,2.20467 0.56273,1.15678 0.56273,2.4088 0,0.35385 -0.0647,0.69407 a 7.3666876,4.6319988 0 0 1 -0.12727,0.46817 6.35722,3.9972695 0 0 1 -0.0675,0.17137 5.7979441,3.6456102 0 0 0 2.1756,-0.54325 7.2965614,4.5879052 0 0 0 0.68138,-0.31411 7.1909398,4.5214929 0 0 0 0.95321,-0.60588 q 0.41988,-0.31792 0.83109,-0.72074 a 17.765239,11.170363 0 0 0 0.81295,-0.89168 l 0.38958,0.27219 a 9.1328226,5.7425027 0 0 1 -0.80427,1.09746 6.5069953,4.0914446 0 0 1 -1.66312,1.17525 q -1.64493,0.77572 -3.59287,0.96627 a 5.9304041,3.7288977 0 0 1 -0.74281,0.89057 4.6335071,2.9134396 0 0 1 -1.44322,0.82416 6.4732311,4.0702147 0 0 1 -2.98079,0.53894 7.7727256,4.8873059 0 0 1 -0.37399,0.006 7.5528243,4.7490372 0 0 1 -1.2969,-0.0658 q -1.14628,-0.12571 -1.92806,-0.4921 -1.19039,-0.55799 -1.68817,-1.37452 a 7.3727478,4.6358095 0 0 1 -0.47358,-1.27601 6.7961568,4.2732627 0 0 1 -0.0228,-0.35709 7.867958,4.9471858 0 0 1 0.0295,-0.45128 q 0.0669,-0.45508 0.2788,-0.75123 a 2.153992,1.3543794 0 0 1 0.0371,-0.0496 3.4292454,2.1562284 0 0 1 0.30661,-0.31789 q 0.24246,-0.20576 0.53766,-0.33534 0.48133,-0.2101 0.92201,-0.31897 a 3.2682155,2.0549765 0 0 1 0.0295,-0.008 3.8292232,2.407725 0 0 0 0.20942,-0.0544 q 0.21399,-0.0605 0.34109,-0.12139 a 0.76186213,0.4790409 0 0 0 0.0774,-0.042 q 1.29865,-0.8982 2.38082,-1.87805 1.0822,-0.97987 1.90465,-2.0686 z m 1.3852,7.24005 q 0.0869,-0.27217 0.12986,-0.57157 0.0332,-0.22918 0.0405,-0.52206 a 17.705501,11.132801 0 0 0 0.002,-0.18557 q 0,-1.27925 -0.49784,-2.54492 a 86.670475,54.496344 0 0 1 -0.45969,-1.22809 70.591723,44.386406 0 0 1 -0.38442,-1.15351 q -0.99562,1.03431 -2.09942,1.97334 -0.8883,0.75558 -1.70643,1.30862 a 15.721199,9.8851166 0 0 1 -0.39304,0.25642 7.2922327,4.5851834 0 0 0 1.02248,0.99619 9.6306303,6.0555124 0 0 0 0.99041,0.63689 6.9866222,4.3930227 0 0 0 2.51326,0.89169 8.6644505,5.4480014 0 0 0 0.84153,0.14257 z m -55.538027,8.08383 a 1.286508,0.80892588 0 0 0 0.5281,-0.0827 q 0.75149,-0.21557 1.83108,-0.99239 1.49344,-1.07511 3.22493,-3.68806 -1.73149,0.54435 -3.22493,1.12956 a 13.949003,8.7708034 0 0 0 -1.28131,0.56395 q -0.65884,0.32772 -1.16444,0.67449 -0.95232,0.65322 -0.95232,1.44255 0,0.32826 0.17228,0.55636 a 1.335856,0.83995466 0 0 0 0.13076,0.13763 1.1895438,0.74795707 0 0 0 0.21298,0.14217 0.81640453,0.51333585 0 0 0 0.52292,0.11647 z m 16.838897,0 a 1.286508,0.80892588 0 0 0 0.52809,-0.0827 q 0.75148,-0.21557 1.83109,-0.99239 1.49339,-1.07511 3.22492,-3.68806 -1.73153,0.54435 -3.22492,1.12956 a 13.949003,8.7708034 0 0 0 -1.28134,0.56395 q -0.65881,0.32772 -1.16442,0.67449 -0.95234,0.65322 -0.95234,1.44255 0,0.32826 0.17214,0.55636 a 1.335856,0.83995466 0 0 0 0.13089,0.13763 1.1895438,0.74795707 0 0 0 0.21305,0.14217 0.81640453,0.51333585 0 0 0 0.5229,0.11647 z m -24.803814,-9.88017 q 1.082195,-1.00707 1.796441,-2.1094 a 10.366519,6.5182223 0 0 0 0.512526,-1.00655 7.6774926,4.8274257 0 0 0 0.201721,-1.07567 6.8117404,4.2830612 0 0 0 -0.02848,-0.40501 q -0.07352,-0.4861 -0.339377,-0.75176 a 1.5713406,0.98802176 0 0 0 -0.235483,-0.18559 0.97050849,0.61023278 0 0 0 -0.695214,-0.18187 1.3981901,0.87914891 0 0 0 -0.683072,0.12035 q -0.464045,0.16234 -0.940207,0.54329 a 6.29402,3.957531 0 0 0 -0.151498,0.12571 4.6456277,2.9210608 0 0 0 -0.770523,1.11376 6.6004966,4.1502361 0 0 0 -0.138536,0.87317 9.085206,5.7125626 0 0 0 0.345434,1.54217 10.124975,6.3663445 0 0 0 0.02258,0.05 6.4680364,4.0669484 0 0 0 0.459717,0.73816 5.081101,3.1948762 0 0 0 0.644129,0.60915 z m 49.477744,0 q 1.08219,-1.00707 1.79644,-2.1094 a 10.366519,6.5182223 0 0 0 0.51254,-1.00655 7.6774926,4.8274257 0 0 0 0.20189,-1.07567 6.8117404,4.2830612 0 0 0 -0.0295,-0.40501 q -0.0736,-0.4861 -0.33936,-0.75176 a 1.5713406,0.98802176 0 0 0 -0.2356,-0.18559 0.97050849,0.61023278 0 0 0 -0.6952,-0.18187 1.3981901,0.87914891 0 0 0 -0.68309,0.12035 q -0.46402,0.16234 -0.94016,0.54329 a 6.29402,3.957531 0 0 0 -0.15152,0.12571 4.6456277,2.9210608 0 0 0 -0.77051,1.11376 6.6004966,4.1502361 0 0 0 -0.13839,0.87317 9.085206,5.7125626 0 0 0 0.34544,1.54217 10.124975,6.3663445 0 0 0 0.0228,0.05 6.4680364,4.0669484 0 0 0 0.4597,0.73816 5.081101,3.1948762 0 0 0 0.64412,0.60915 z m 11.08164,3.56559 a 2.1245566,1.3358708 0 0 0 0.35842,-0.0212 q 0.43199,-0.0469 1.02679,-0.19649 a 1.7418941,1.0952617 0 0 0 0.67183,-0.31245 q 0.39218,-0.28687 0.66142,-0.7877 a 6.3130667,3.9695071 0 0 0 0.0109,-0.0165 q -1.8181,-0.21778 -3.22493,-0.89823 a 12.065126,7.586266 0 0 1 -0.95496,-0.51005 q -0.44495,-0.2662 -0.7809,-0.53185 a 6.1148094,3.8448475 0 0 1 -0.36361,-0.319 0.84410863,0.53075554 0 0 0 -0.76966,0.31519 q -0.17407,0.22157 -0.18257,0.59989 a 4.4136058,2.7751709 0 0 0 0,0.0376 q 0,0.97986 0.93071,1.81001 a 2.9574104,1.8595496 0 0 0 2.13405,0.8122 3.9244556,2.4676049 0 0 0 0.48482,0.0185 z"
       vector-effect="non-scaling-stroke"
       id="path280"
       style="font-size:12px;fill:#b0bec5;fill-rule:evenodd;stroke:#b0bec5;stroke-width:0.343251mm;stroke-linecap:round" /><path
       style="fill:#b0bec5;fill-opacity:1;stroke-width:0.264583"
       id="path652"
       d="m 107.91513,190.4358 c -0.0378,0.1046 -0.0841,0.20609 -0.13767,0.30354 -0.0402,0.0709 -0.0734,0.14534 -0.11246,0.21679 -0.05,0.0931 -0.10726,0.18215 -0.16293,0.27193 -0.0516,0.0879 -0.11029,0.17135 -0.17382,0.25096 -0.0529,0.0629 -0.10412,0.12746 -0.16184,0.1861 -0.0569,0.0616 -0.11329,0.12399 -0.18111,0.17374 -0.049,0.037 -0.0934,0.0788 -0.13859,0.12009 -0.0394,0.0364 -0.0758,0.075 -0.10721,0.11855 -0.0132,0.0227 -0.0346,0.0325 -0.0528,0.0488 0,0 0.84326,0.52744 0.84326,0.52744 v 0 c 0.0259,-0.0197 0.0453,-0.0453 0.0646,-0.0711 0.0271,-0.0378 0.0576,-0.072 0.0925,-0.10283 0.0442,-0.0395 0.0886,-0.0787 0.1337,-0.11702 0.0654,-0.0579 0.12474,-0.12143 0.18418,-0.18533 0.06,-0.0622 0.11738,-0.12692 0.16811,-0.19693 0.0608,-0.0855 0.12367,-0.1696 0.17749,-0.25983 0.0547,-0.0912 0.10851,-0.18299 0.16621,-0.27236 0.0437,-0.0711 0.0739,-0.14831 0.11319,-0.22184 0.0498,-0.10106 0.0894,-0.20709 0.14573,-0.30491 0,0 -0.8605,-0.48575 -0.8605,-0.48575 z" /><path
       style="fill:#b0bec5;fill-opacity:1;stroke-width:0.264583"
       id="path725"
       d="m 106.87548,192.07261 c -0.0592,0.059 -0.11877,0.11814 -0.18234,0.17245 -0.0326,0.027 -0.0592,0.0618 -0.0926,0.0875 -0.0209,0.0276 -0.042,0.0551 -0.0621,0.0833 -0.0197,0.0221 -0.042,0.0416 -0.0611,0.0643 -0.0256,0.0286 -0.0557,0.0528 -0.0814,0.0816 -0.0241,0.0325 -0.0508,0.0629 -0.0753,0.0949 -0.0285,0.0246 -0.05,0.0534 -0.0664,0.0873 -0.0162,0.0413 -0.0262,0.0865 -0.006,0.12782 0.002,0.004 0.005,0.009 0.007,0.0135 0,0 0.899,0.4242 0.899,0.4242 v 0 c -0.001,-0.007 -0.002,-0.013 -0.004,-0.0196 -0.003,-0.008 -0.005,-0.0213 -0.0127,-0.0273 -0.003,-0.002 -0.008,-5.3e-4 -0.0105,-0.003 -0.007,-0.006 -0.01,-0.019 -0.007,-0.027 0.0102,-0.0271 0.0387,-0.0431 0.0543,-0.0671 0.0233,-0.0292 0.0447,-0.06 0.07,-0.0875 0.0278,-0.0276 0.0574,-0.0533 0.0837,-0.0823 0.0235,-0.023 0.0455,-0.0475 0.0662,-0.0729 0.0173,-0.0225 0.0324,-0.0471 0.0521,-0.0675 0.0292,-0.0304 0.0586,-0.0606 0.0874,-0.0914 0.0594,-0.0607 0.11853,-0.12206 0.18625,-0.17378 0,0 -0.84451,-0.51751 -0.84451,-0.51751 z" /><path
       style="fill:#b0bec5;fill-opacity:1;stroke-width:0.264583"
       id="path727"
       d="m 124.79344,190.70469 c -0.0213,0.0968 -0.0606,0.18788 -0.10596,0.27555 -0.0371,0.0628 -0.075,0.12515 -0.11425,0.1867 -0.0334,0.0365 -0.0605,0.0778 -0.0895,0.11771 -0.0291,0.039 -0.0548,0.0811 -0.0858,0.11872 -0.025,0.035 -0.0577,0.0633 -0.0855,0.096 -0.033,0.024 -0.0531,0.0603 -0.0836,0.0868 -0.0384,0.0344 -0.0709,0.075 -0.10569,0.11301 -0.0556,0.0461 -0.11608,0.0857 -0.1726,0.13065 -0.0566,0.0489 -0.11726,0.0938 -0.18011,0.13443 -0.0401,0.0263 -0.0722,0.0623 -0.10817,0.0935 -0.0285,0.0272 -0.0519,0.0581 -0.0732,0.0912 -0.0223,0.0264 -0.0413,0.0559 -0.0607,0.0846 -0.0199,0.0313 -0.0503,0.0529 -0.0746,0.0805 -0.031,0.0272 -0.0553,0.0618 -0.0791,0.0954 -0.0254,0.0275 -0.0464,0.0591 -0.0677,0.0899 -0.022,0.0332 -0.0439,0.0665 -0.0675,0.0986 -0.029,0.042 -0.054,0.0865 -0.0822,0.12892 -0.004,0.006 -0.007,0.0123 -0.011,0.0184 0,0 0.86001,0.49656 0.86001,0.49656 v 0 c 0.003,-0.005 0.006,-0.0106 0.009,-0.0158 0.0245,-0.0414 0.0472,-0.0841 0.0775,-0.12175 0.0249,-0.0328 0.0472,-0.0673 0.0706,-0.10106 0.0213,-0.0303 0.0429,-0.0602 0.0666,-0.0886 0.0219,-0.03 0.0445,-0.0591 0.072,-0.0843 0.0301,-0.029 0.0598,-0.0585 0.0832,-0.0935 0.0202,-0.0291 0.0405,-0.058 0.0623,-0.0859 0.0174,-0.0261 0.0363,-0.0503 0.0596,-0.0716 0.0306,-0.0306 0.0638,-0.0588 0.0988,-0.0843 0.0589,-0.0467 0.11832,-0.0927 0.17736,-0.13921 0.0632,-0.0458 0.12752,-0.0907 0.18586,-0.14266 0.0342,-0.0365 0.0671,-0.0744 0.10465,-0.10752 0.0296,-0.0311 0.0584,-0.063 0.0891,-0.0931 0.0297,-0.033 0.0608,-0.0651 0.086,-0.10177 0.0299,-0.04 0.0602,-0.0796 0.0877,-0.12126 0.0306,-0.0416 0.0604,-0.0837 0.0912,-0.12515 0.0396,-0.0646 0.075,-0.13161 0.11145,-0.19797 0.0473,-0.0931 0.0849,-0.18951 0.12279,-0.28667 0,0 -0.86853,-0.47491 -0.86853,-0.47491 z" /><path
       style="fill:#b0bec5;fill-opacity:1;stroke-width:0.264583"
       id="path729"
       d="m 91.194035,190.63412 c -0.07739,0.0922 -0.156538,0.18264 -0.237159,0.27201 -0.06756,0.0792 -0.134393,0.15844 -0.194673,0.24334 -0.04175,0.0647 -0.09335,0.12157 -0.140017,0.18258 -0.04896,0.0553 -0.0837,0.12114 -0.129228,0.17876 -0.03003,0.0513 -0.06725,0.0976 -0.105024,0.14328 -0.0371,0.0342 -0.07349,0.0694 -0.108225,0.10594 -0.02888,0.0243 -0.05463,0.0528 -0.08686,0.073 -0.03616,0.028 -0.08142,0.0383 -0.122667,0.0564 -0.02246,0.0122 -0.049,0.0114 -0.07274,0.0184 -0.0218,0.006 -0.04109,0.0166 -0.06351,0.0218 -0.006,8e-4 -0.01225,5.3e-4 -0.01799,0.002 -0.0073,0.002 -0.01357,0.007 -0.02058,0.0105 -0.02725,0.0123 -0.0546,0.0217 -0.08026,0.0372 -0.04232,0.0299 -0.07462,0.0727 -0.09899,0.11807 -0.01344,0.0346 -0.02806,0.0682 -0.04945,0.0985 -0.02516,0.035 -0.0506,0.0697 -0.0738,0.10614 -0.02286,0.0221 -0.0325,0.054 -0.05412,0.077 -0.02318,0.0261 -0.02886,0.0624 -0.04887,0.0903 -0.003,0.005 -0.006,0.01 -0.0089,0.0145 0,0 0.859819,0.49983 0.859819,0.49983 v 0 c 0.0027,-0.004 0.0053,-0.009 0.008,-0.0128 0.01648,-0.0268 0.02643,-0.0565 0.04414,-0.0821 0.02045,-0.0283 0.03706,-0.0589 0.05851,-0.0865 0.02178,-0.035 0.04484,-0.0689 0.06924,-0.10214 0.02432,-0.0337 0.04649,-0.0695 0.05793,-0.10978 0.01397,-0.0289 0.03431,-0.0536 0.06497,-0.0651 0.03686,-0.0127 0.07271,-0.0275 0.110588,-0.0365 0.04601,-0.0173 0.09404,-0.0282 0.138808,-0.0491 0.0496,-0.0187 0.09648,-0.0425 0.13806,-0.0757 0.03343,-0.0275 0.06611,-0.0555 0.09539,-0.0875 0.03695,-0.0378 0.07406,-0.0755 0.10995,-0.11429 0.03835,-0.0474 0.07641,-0.0954 0.107334,-0.14808 0.04107,-0.0599 0.07773,-0.12274 0.124317,-0.17883 0.04819,-0.0621 0.103732,-0.11865 0.143359,-0.18723 0.05446,-0.0834 0.11611,-0.1615 0.181739,-0.2365 0.07821,-0.0897 0.152686,-0.18412 0.244174,-0.26086 0,0 -0.843227,-0.51673 -0.843227,-0.51673 z" /><path
       style="fill:#b0bec5;fill-opacity:1;stroke-width:0.264583"
       id="path739"
       d="m 140.49734,190.99851 c -0.0223,0.034 -0.0587,0.0541 -0.093,0.0738 -0.0253,0.007 -0.0426,0.0283 -0.0662,0.0381 -0.0224,0.01 -0.0396,0.0283 -0.0608,0.0401 -0.0141,0.0102 -0.0255,0.0242 -0.0402,0.0336 -0.006,0.004 -0.0127,0.007 -0.0189,0.0107 -0.0256,0.0158 -0.0423,0.0413 -0.0623,0.0632 -0.0303,0.0251 -0.0526,0.0578 -0.0777,0.0879 -0.0205,0.0215 -0.0404,0.0437 -0.0614,0.0646 -0.0422,0.0422 0.018,-0.0213 -0.0242,0.0237 -0.0198,0.0241 -0.0432,0.0445 -0.0642,0.0674 -0.0248,0.0252 -0.0519,0.048 -0.0781,0.0718 -0.0336,0.0274 -0.0698,0.0514 -0.10365,0.0785 -0.0265,0.0214 -0.0564,0.0382 -0.0807,0.0621 -0.0199,0.019 -0.0431,0.0334 -0.0632,0.0523 -0.0268,0.0233 -0.0549,0.0449 -0.0824,0.0675 -0.0279,0.0184 -0.0566,0.0349 -0.0846,0.0533 -0.0167,0.006 -0.0295,0.0184 -0.0447,0.0267 -0.003,0.002 -0.006,0.003 -0.009,0.004 -0.003,0.002 -0.007,0.004 -0.0101,0.006 -0.0103,0.006 -0.0177,0.0152 -0.0288,0.0195 -0.002,8e-4 -0.005,8e-4 -0.007,0.002 -0.0204,0.008 0.002,0.002 -0.0152,0.006 -0.003,0.001 -0.005,0.002 -0.008,0.003 -0.003,5.3e-4 -0.005,7.9e-4 -0.008,0.002 -0.003,0.001 -0.006,0.004 -0.01,0.005 -0.003,0.001 -0.006,0.001 -0.008,0.003 -0.0262,0.0117 0.004,10e-4 -0.0181,0.008 -0.003,0.002 -0.006,0.004 -0.01,0.006 -0.002,0.001 -0.005,5.3e-4 -0.007,0.001 -0.003,0.001 -0.006,0.004 -0.01,0.005 -0.003,0.001 -0.006,0.001 -0.009,0.003 -0.0273,0.0119 0.005,7.9e-4 -0.0187,0.008 -0.003,0.002 -0.007,0.004 -0.01,0.006 -0.003,8e-4 -0.006,0.001 -0.008,0.003 -0.008,0.005 -0.009,0.008 -0.017,0.0109 -0.0142,0.004 0.007,-0.007 -0.0125,0.005 -0.003,0.002 -0.005,0.005 -0.008,0.007 -0.002,0.001 -0.004,0.001 -0.006,0.003 -0.0142,0.01 -0.0241,0.0262 -0.0333,0.0405 -0.006,0.005 -0.006,0.0178 -0.0131,0.0217 -5.3e-4,2.7e-4 -5.3e-4,-0.002 -0.001,-0.001 -0.008,0.005 -0.002,0.006 -0.007,0.005 0.003,-0.003 -0.005,0.009 -0.008,0.007 -8e-4,-7.9e-4 0,-0.003 -0.001,-0.003 -0.003,10e-4 -0.004,0.004 -0.006,0.006 -8e-4,5.3e-4 -0.002,2.4e-4 -0.003,2.6e-4 -0.002,0.001 -0.004,0.003 -0.005,0.004 -0.009,0.001 0.003,-0.001 -0.0117,0.008 -0.001,5.2e-4 -0.002,-0.001 -0.003,-5.3e-4 -0.003,10e-4 -0.004,0.003 -0.007,0.004 -0.0158,0.007 0.007,-0.009 -0.0152,0.009 -0.002,0.001 -0.004,0.002 -0.006,0.003 -0.002,1e-5 -0.003,-5.3e-4 -0.005,3e-5 -0.003,10e-4 -0.005,0.003 -0.007,0.004 -0.002,8e-4 -0.004,5.3e-4 -0.006,0.001 -0.008,0.004 -0.0121,0.009 -0.0182,0.0148 -0.0133,0.01 -0.0273,0.0175 -0.0388,0.0292 -0.0203,0.0132 -0.0367,0.0323 -0.0532,0.0499 -0.0131,0.0113 -0.0277,0.0211 -0.0382,0.0347 -0.0131,0.0198 -0.0276,0.0383 -0.0415,0.0576 -0.0155,0.0187 -0.0279,0.0395 -0.0395,0.0607 -0.0103,0.0178 -0.0169,0.0372 -0.0217,0.0571 -0.004,0.0117 -0.0103,0.0246 -0.0199,0.0327 -0.005,0.006 -0.0103,0.0119 -0.0162,0.0172 -0.001,8e-4 -0.003,8e-4 -0.004,0.002 -0.005,0.005 -0.01,0.0121 -0.0134,0.0179 -0.006,0.0122 -0.0124,0.0211 -0.0189,0.0319 -0.009,0.0128 -0.016,0.026 -0.0226,0.0401 -0.002,0.004 -0.0111,0.0259 -0.0144,0.0254 -0.008,0.0122 -0.0162,0.0245 -0.0233,0.0375 0,0 0.86059,0.49608 0.86059,0.49608 v 0 c 0.005,-0.009 0.0112,-0.0168 0.0167,-0.0252 0.009,-0.0138 0.0176,-0.028 0.0246,-0.0429 0.005,-0.01 0.008,-0.0192 0.0154,-0.0277 0.007,-0.01 0.0138,-0.0203 0.0189,-0.0314 1.7e-4,-2.7e-4 -5.3e-4,5.3e-4 -0.001,7.9e-4 0.0104,-0.009 0.0176,-0.0217 0.0269,-0.0318 0.015,-0.0198 0.0264,-0.042 0.0372,-0.0644 0.006,-0.0142 0.009,-0.0286 0.0139,-0.043 0.009,-0.0168 0.0157,-0.0346 0.0286,-0.0489 0.007,-0.008 0.0141,-0.016 0.0211,-0.0242 0.004,-0.005 0.01,-0.0128 0.0145,-0.0175 0.001,-0.001 0.003,-0.002 0.004,-0.003 0.0136,-0.009 0.0226,-0.0261 0.035,-0.0366 0.009,-0.009 0.0181,-0.0169 0.0292,-0.0234 0.003,-0.002 0.006,-0.003 0.009,-0.005 0.003,-0.002 0.006,-0.005 0.009,-0.007 0.0132,-0.006 0.0237,-0.0165 0.0365,-0.0236 0.009,0.003 0.0311,-0.0139 0.0392,-0.0189 0.0117,-0.002 0.0207,-0.0117 0.0305,-0.0176 7.9e-4,-5.3e-4 0.002,5.3e-4 0.003,2e-5 0.003,-0.002 0.005,-0.004 0.008,-0.006 0.0134,-0.007 0.0225,-0.018 0.033,-0.0286 0.0114,-0.0141 0.0217,-0.0288 0.0309,-0.0445 0.008,-0.006 0.001,0.002 0.008,-0.002 0.0152,-0.007 0.002,-0.004 0.0134,-0.006 0.008,-0.003 0.0134,-0.009 0.021,-0.0124 10e-4,-5.3e-4 0.003,-5e-5 0.004,-5.3e-4 0.0287,-0.0116 -0.008,5.3e-4 0.0162,-0.007 0.0117,-0.006 0.0242,-0.01 0.0361,-0.0151 0.004,-0.002 0.007,-0.004 0.0111,-0.006 0.002,-0.001 0.005,-0.002 0.007,-0.002 0.018,-0.009 0.0377,-0.0148 0.0552,-0.0253 0.006,-0.004 0.0118,-0.007 0.0174,-0.0109 0.0117,-0.008 0.0219,-0.0186 0.0353,-0.0243 0.0217,-0.0133 0.0423,-0.0283 0.063,-0.043 0.013,-0.009 0.0267,-0.017 0.0391,-0.0266 0.0148,-0.0114 0.0278,-0.025 0.0431,-0.0357 0.0307,-0.0219 0.062,-0.043 0.091,-0.067 0.0235,-0.0166 0.0448,-0.0354 0.0656,-0.0552 0.0247,-0.0195 0.0483,-0.0403 0.0724,-0.0606 0.0341,-0.0274 0.0681,-0.0549 0.10319,-0.081 0.0313,-0.0242 0.0608,-0.0512 0.0899,-0.0779 0.0226,-0.023 0.0437,-0.0472 0.0653,-0.0711 0.0254,-0.031 0.0498,-0.0629 0.077,-0.0925 0.0271,-0.0281 0.0575,-0.0524 0.0848,-0.0802 0.0165,-0.0166 0.0343,-0.0308 0.0543,-0.0429 0.0201,-0.0146 0.0382,-0.0322 0.0602,-0.0441 0.0178,-0.0142 0.0384,-0.0238 0.0575,-0.0361 0.0207,-0.0157 0.0426,-0.0298 0.0625,-0.0465 0.0347,-0.0276 0.0676,-0.0585 0.10743,-0.0788 0,0 -0.84038,-0.52271 -0.84038,-0.52271 z" /><path
       style="fill:#b0bec5;fill-opacity:1;stroke-width:0.264583"
       id="path743"
       d="m 141.27375,191.56475 c 0.0114,-0.0132 0.0258,-0.0229 0.04,-0.0327 0.0231,-0.0161 0.001,-0.003 0.0206,-0.014 0.004,-0.003 0.0104,-0.01 0.016,-0.0118 0.001,-5.3e-4 0.003,7.9e-4 0.004,2e-4 0.006,-0.003 0.008,-0.01 0.0141,-0.005 0.002,-0.002 0.007,-0.008 0.0115,-0.008 0.001,7e-5 0.002,0.002 0.003,0.002 0.007,-0.003 0.007,-0.0105 0.0152,-0.007 0.0135,-0.014 0.0133,-0.007 0.0273,-0.002 0.004,-0.006 0.0113,-0.004 0.0166,-0.007 0.004,-0.002 0.007,-0.005 0.0106,-0.008 0.002,-0.001 0.005,-0.002 0.007,-0.004 0.0258,-0.0197 -0.001,-0.003 0.0154,-0.0127 0.007,-0.007 0.0127,-0.0136 0.0196,-0.0207 7.9e-4,-8e-4 0.002,-5.3e-4 0.003,-0.001 0.009,-0.01 0.003,-0.007 0.009,-0.009 0.003,0.0132 -0.001,0.006 0.009,0.002 0.002,-0.001 0.005,0.003 0.007,0.003 0.003,-8e-4 0.005,-0.003 0.008,-0.004 0.0131,-0.004 0.0267,-7.9e-4 0.04,0.001 0.002,2.5e-4 0.005,5.3e-4 0.007,7.9e-4 0,0 -0.80572,-0.57865 -0.80572,-0.57865 v 0 c -0.003,5.3e-4 -0.006,0.001 -0.009,0.002 -0.0191,0.005 -0.037,0.0122 -0.0549,0.0203 -0.011,0.002 -0.0164,0.008 -0.0259,0.0133 -7.9e-4,5.3e-4 -0.002,-5.3e-4 -0.003,-7e-5 -0.005,0.004 -0.014,0.0136 -0.0184,0.0184 -0.003,0.004 -0.009,0.01 -0.013,0.0129 -2.7e-4,2.6e-4 -5.3e-4,-0.001 -0.001,-7.9e-4 -0.002,0.001 -0.003,0.004 -0.005,0.005 -5.3e-4,2.6e-4 -5.3e-4,-0.001 -8e-4,-0.002 -0.0172,0.0103 0.001,0.002 -0.006,2.6e-4 -0.002,-2.6e-4 -0.004,0.002 -0.006,0.002 -0.001,-1.7e-4 -0.001,-0.003 -0.003,-0.003 -0.0254,-0.004 0.007,0.006 -0.0124,-2.6e-4 -0.008,0.003 -0.01,0.004 -0.0179,0.008 -0.006,0.003 -0.0163,0.0136 -0.0225,0.0151 -7.9e-4,2.2e-4 -0.001,-0.001 -0.002,-0.002 -7e-5,5e-5 -0.0121,0.009 -0.0138,0.01 -7.9e-4,2.5e-4 -0.001,-0.002 -0.002,-0.001 -0.005,0.003 -0.0103,0.0114 -0.0169,0.0106 -0.0132,0.0116 -0.0267,0.0224 -0.0392,0.0348 -0.0205,0.019 -0.0425,0.0363 -0.0664,0.0508 0,0 0.84112,0.52437 0.84112,0.52437 z" /><path
       style="fill:#b0bec5;fill-opacity:1;stroke-width:0.264583"
       id="path749"
       d="m 140.60695,191.01047 c 0.0257,-0.0124 0.0513,-0.0254 0.0756,-0.0405 0.0167,-0.008 0.0283,-0.0212 0.0363,-0.0377 0.005,-0.0127 0.0149,-0.0159 0.0275,-0.0177 0.009,-8e-4 0.005,-5.3e-4 0.014,-8e-4 0,0 -0.0806,-0.0577 -0.0806,-0.0577 v 0 c -0.01,0.001 -0.005,2.6e-4 -0.0148,0.002 -0.0146,0.004 -0.0261,0.011 -0.0323,0.0255 -0.007,0.015 -0.0183,0.0254 -0.0329,0.0331 -0.024,0.0147 -0.0489,0.0281 -0.0748,0.0389 0,0 0.0821,0.055 0.0821,0.055 z" /><path
       style="fill:#b0bec5;fill-opacity:1;stroke-width:0.264583"
       id="path751"
       d="m 140.60616,190.97898 c 0.0224,-0.0113 0.0438,-0.0245 0.0648,-0.0382 0.01,-0.005 0.005,-0.003 0.0144,-0.007 0,0 -0.0826,-0.0548 -0.0826,-0.0548 v 0 c -0.0102,0.005 -0.005,0.002 -0.0152,0.008 -0.0204,0.0138 -0.0414,0.0266 -0.0639,0.0367 0,0 0.0824,0.0548 0.0824,0.0548 z" /><path
       style="fill:#b0bec5;fill-opacity:1;stroke-width:0.264583"
       id="path755"
       d="m 139.10969,192.05121 c -0.001,0.004 -0.003,0.007 -0.006,0.0104 -0.002,0.002 -0.003,0.005 -0.005,0.007 -0.001,0.002 -0.001,0.004 -0.003,0.006 -10e-4,0.002 -0.003,0.003 -0.005,0.005 -0.002,0.002 -0.003,0.004 -0.005,0.006 -0.001,0.002 -0.003,0.003 -0.005,0.004 -0.002,0.001 -0.003,0.003 -0.005,0.004 -5.3e-4,7.9e-4 -0.001,10e-4 -0.002,0.002 -1.3e-4,1.2e-4 -2.6e-4,1.5e-4 -5.3e-4,2.6e-4 -0.001,0.001 -2.3e-4,5.3e-4 -0.001,0.001 -7.9e-4,-5.3e-4 -0.002,7.9e-4 -0.002,0.001 -5.3e-4,5.3e-4 -10e-4,0.001 -0.002,0.001 -0.002,0.001 -0.003,0.003 -0.004,0.003 -7.9e-4,7.9e-4 -0.002,0.001 -0.002,0.002 -1.5e-4,1.4e-4 -2.6e-4,1.6e-4 -5.3e-4,2.7e-4 -0.002,0.001 -2.3e-4,5.3e-4 -0.001,0.001 -7.9e-4,7.9e-4 -0.001,0.001 -0.002,0.002 -1e-4,9e-5 -2.6e-4,8e-5 -2.7e-4,1.7e-4 -0.001,10e-4 -2.6e-4,7.9e-4 -0.001,10e-4 -2.6e-4,-5.2e-4 -10e-4,2e-5 -0.002,1.7e-4 0,0 0.0823,0.0547 0.0823,0.0547 v 0 c 10e-4,-7.9e-4 0.003,-0.001 0.004,-0.003 0.001,-0.001 0.002,-0.002 0.003,-0.003 0.001,-0.001 0.002,-0.002 0.003,-0.003 0.001,-0.001 0.003,-0.002 0.004,-0.003 7.9e-4,-5.3e-4 0.002,-0.001 0.003,-0.002 1.2e-4,-7e-5 2.7e-4,-4e-5 5.3e-4,-1e-4 8e-4,-5.3e-4 0.001,-8e-4 0.002,-0.002 10e-4,-10e-4 0.003,-0.003 0.004,-0.004 0.001,-0.001 0.003,-0.002 0.004,-0.004 0.002,-0.002 0.004,-0.004 0.005,-0.006 0.001,-0.002 0.003,-0.003 0.004,-0.005 0.002,-0.002 0.004,-0.004 0.006,-0.007 10e-4,-0.002 0.003,-0.004 0.003,-0.007 0.001,-0.002 0.003,-0.004 0.004,-0.007 0.002,-0.004 0.004,-0.008 0.007,-0.0113 0,0 -0.0862,-0.0486 -0.0862,-0.0486 z" /><path
       style="fill:#b0bec5;fill-opacity:1;stroke-width:0.264583"
       id="path761"
       d="m 90.41326,191.54587 c -0.01032,0.0105 -0.02132,0.0204 -0.03205,0.0306 -0.0088,0.008 -0.01773,0.0166 -0.02625,0.0253 -0.0113,0.0113 -0.02363,0.0214 -0.03626,0.0311 -0.01347,0.0104 -0.02751,0.0199 -0.04184,0.0291 -0.0099,0.007 -0.02016,0.0125 -0.03015,0.0189 -0.0059,0.004 -0.01191,0.007 -0.0168,0.0122 -0.0042,0.003 -0.0078,0.007 -0.01069,0.0113 -0.0041,0.006 -0.0085,0.0117 -0.01238,0.0178 -0.0032,0.005 -0.0074,0.009 -0.01164,0.0135 -0.0048,0.005 -0.01019,0.008 -0.01569,0.012 -0.0054,0.002 -0.0092,0.007 -0.01482,0.008 -0.0062,0.002 -0.01119,0.006 -0.01667,0.009 -0.0059,0.004 -0.01281,0.007 -0.01905,0.0102 -0.0081,0.003 -0.01566,0.008 -0.02344,0.0118 -0.0095,0.006 -0.01886,0.0118 -0.02857,0.0172 -0.0072,0.004 -0.01349,0.009 -0.02077,0.0134 -0.0053,0.004 -0.01077,0.007 -0.01656,0.01 -0.0056,0.003 -0.0109,0.006 -0.01659,0.009 -0.006,0.004 -0.01265,0.007 -0.01905,0.01 -0.0064,0.004 -0.01302,0.007 -0.01876,0.0117 -0.0062,0.006 -0.01315,0.0102 -0.01974,0.0153 -0.0061,0.006 -0.01228,0.011 -0.01924,0.0156 -0.007,0.005 -0.01352,0.0102 -0.02032,0.0153 -0.0055,0.003 -0.01027,0.007 -0.01564,0.0107 -0.0036,0.002 -0.0019,0.001 -0.0054,0.004 0,0 0.08356,0.0531 0.08356,0.0531 v 0 c 0.0035,-0.002 0.0019,-0.001 0.0053,-0.004 0.0052,-0.004 0.0105,-0.007 0.01572,-0.0112 0.0066,-0.005 0.01294,-0.0105 0.01995,-0.015 0.0069,-0.005 0.01318,-0.0104 0.01953,-0.016 0.0066,-0.005 0.01336,-0.01 0.01979,-0.015 0.0058,-0.004 0.01159,-0.007 0.01778,-0.0102 0.0066,-0.003 0.01288,-0.007 0.01934,-0.01 0.0055,-0.003 0.01119,-0.006 0.01672,-0.009 0.0057,-0.003 0.01119,-0.007 0.01662,-0.0104 0.0069,-0.004 0.01333,-0.009 0.02045,-0.0135 0.0093,-0.006 0.01849,-0.0116 0.02803,-0.0169 0.008,-0.004 0.01622,-0.007 0.0241,-0.0117 0.0066,-0.003 0.01336,-0.006 0.01945,-0.0106 0.0051,-0.003 0.01056,-0.006 0.01614,-0.008 0.0053,-0.003 0.01019,-0.007 0.01558,-0.01 0.0059,-0.004 0.01127,-0.009 0.01651,-0.0136 0.0049,-0.005 0.0096,-0.01 0.01294,-0.0155 0.0037,-0.006 0.0081,-0.0114 0.01225,-0.0171 0.0029,-0.004 0.0063,-0.007 0.0098,-0.01 0.0048,-0.004 0.0098,-0.008 0.01513,-0.0111 0.0099,-0.006 0.02003,-0.0127 0.02984,-0.0193 0.01405,-0.01 0.02765,-0.0199 0.04119,-0.0302 0.01328,-0.01 0.02641,-0.0198 0.03805,-0.0316 0.0086,-0.008 0.01757,-0.0166 0.02595,-0.0252 0.0105,-0.0103 0.02103,-0.0206 0.03266,-0.0297 0,0 -0.08396,-0.0522 -0.08396,-0.0522 z" /><path
       style="fill:#b0bec5;fill-opacity:1;stroke-width:0.264583"
       id="path763"
       d="m 106.73933,192.13653 c -0.003,0.006 -0.008,0.0106 -0.012,0.0153 -0.004,0.005 -0.009,0.009 -0.0132,0.0132 -0.003,0.003 -0.005,0.006 -0.008,0.009 -0.002,0.003 -0.004,0.006 -0.006,0.009 -0.002,0.004 -0.004,0.008 -0.006,0.0117 -0.002,0.003 -0.003,0.007 -0.004,0.0101 -10e-4,0.003 -0.002,0.006 -0.004,0.009 -0.001,0.003 -0.002,0.006 -0.004,0.009 -0.001,0.003 -0.002,0.006 -0.003,0.01 -7.9e-4,0.002 -0.001,0.004 -0.002,0.006 -8e-4,0.002 -0.002,0.004 -0.002,0.006 -8e-4,0.002 -0.002,0.005 -0.003,0.007 -10e-4,0.002 -0.002,0.004 -0.004,0.006 0,0 0.0853,0.0503 0.0853,0.0503 v 0 c 0.002,-0.003 0.003,-0.005 0.005,-0.008 10e-4,-0.002 0.002,-0.005 0.003,-0.007 10e-4,-0.002 0.002,-0.004 0.003,-0.006 10e-4,-0.003 0.002,-0.005 0.003,-0.008 5.3e-4,-0.003 10e-4,-0.005 0.002,-0.008 0.001,-0.003 0.003,-0.006 0.004,-0.009 10e-4,-0.003 0.003,-0.006 0.003,-0.008 10e-4,-0.003 0.002,-0.007 0.004,-0.01 0.002,-0.004 0.003,-0.008 0.006,-0.0111 0.002,-0.003 0.003,-0.006 0.005,-0.008 0.002,-0.003 0.004,-0.006 0.007,-0.008 0.004,-0.005 0.008,-0.009 0.0123,-0.0136 0.005,-0.005 0.01,-0.0107 0.0142,-0.0162 0,0 -0.0856,-0.0498 -0.0856,-0.0498 z" /></g></svg>
