<?xml version="1.0" encoding="UTF-8" standalone="no"?>
<svg
   id="Layer_1"
   data-name="Layer 1"
   style="display:block"
   viewBox="0 0 644.50177 604.91016"
   version="1.1"
   sodipodi:docname="paw.svg"
   width="644.50177"
   height="604.91016"
   inkscape:version="1.2.2 (732a01da63, 2022-12-09)"
   xmlns:inkscape="http://www.inkscape.org/namespaces/inkscape"
   xmlns:sodipodi="http://sodipodi.sourceforge.net/DTD/sodipodi-0.dtd"
   xmlns="http://www.w3.org/2000/svg"
   xmlns:svg="http://www.w3.org/2000/svg">
  <sodipodi:namedview
     id="namedview25"
     pagecolor="#ffffff"
     bordercolor="#000000"
     borderopacity="0.25"
     inkscape:showpageshadow="2"
     inkscape:pageopacity="0.0"
     inkscape:pagecheckerboard="0"
     inkscape:deskcolor="#d1d1d1"
     showgrid="false"
     inkscape:zoom="0.814"
     inkscape:cx="321.86732"
     inkscape:cy="302.2113"
     inkscape:window-width="1920"
     inkscape:window-height="1017"
     inkscape:window-x="1912"
     inkscape:window-y="-8"
     inkscape:window-maximized="1"
     inkscape:current-layer="Layer_1" />
  <defs
     id="defs20">
    <style
       id="style18">.cls-1{fill:#006F65;}</style>
  </defs>
  <path
     class="cls-1"
     d="m 635.80897,209.59 a 157.17,157.17 0 0 0 -12.73,-28.59 94.17,94.17 0 0 0 -22.38,-26.36 c -10.8,-8.7 -22.64,-13.11 -35.19,-13.11 v 0 a 58.53,58.53 0 0 0 -25.81,6.3 81.58,81.58 0 0 0 -22.92,16.6 c -36.41,37.71 -56.93,77.54 -62.73,121.78 -3.11,23.72 1.48,46.77 13.27,66.65 0.69,1.17 1.42,2.32 2.16,3.45 q -5.73,-5.93 -11.52,-11.87 a 543.91,543.91 0 0 1 -55.38,-67.15 114.69,114.69 0 0 0 -25.49,-26.63 76,76 0 0 0 24.15,3.91 80.44,80.44 0 0 0 42.12,-12.27 126.18,126.18 0 0 0 40.61,-40.75 c 17.35,-27.53 22.49,-58.86 15.7,-95.79 a 166.37,166.37 0 0 0 -35.33,-76.23 94.68,94.68 0 0 0 -26.66,-22 57.66,57.66 0 0 0 -27.86,-7.53 v 0 0 c -11.69,0 -22.92,3.88 -33.38,11.54 a 81.57,81.57 0 0 0 -19.66,20.34 c -24.44,36.38 -37.68,72.29 -40.16,109.14 -1.69,-19.67 -6.74,-39.36 -15.41,-60.05 -8.59,-20.51 -19.43,-44 -39.27,-62.9 -12.42,-11.84 -26.14,-17.84 -40.78,-17.84 v 0 a 56.52,56.52 0 0 0 -17.45,2.84 c -11.74,3.8 -22.28,10.92 -32.21,21.76 -21.34,23.29 -34.09,51.44 -40.13,88.58 -1.72,9.35 -2,22.09 -0.86,34.14 a 127.37,127.37 0 0 0 4.73,24.14 130.29,130.29 0 0 0 -20.75,-18.16 c -11.46,-8 -23.260004,-12 -35.070004,-12 a 54.78,54.78 0 0 0 -24.78,6.09 c -11,5.55 -20.34,14.2 -28.5,26.43 -17.5200004,26.28 -25.83000038,56.05 -26.11000038,93.68 -0.27,9.5 1.35999998,22.14 4.36999998,33.87 9.1800004,35.73 31.6000004,63.12 66.6600004,81.4 a 83.51,83.51 0 0 0 38.390004,9.62 77.51,77.51 0 0 0 28.93,-5.61 c -30.56,26.91 -45.760004,61.9 -46.420004,106.73 -0.31,9.57 2.32,22.94 6.89,35 a 117.38,117.38 0 0 0 43.870004,55.58 118.68,118.68 0 0 0 67,20.59 121.14,121.14 0 0 0 20.09,-1.68 c 10.16,-1.71 19.87,-4.21 29.26,-6.63 6.91,-1.79 13.44,-3.47 20,-4.82 15.8,-3.24 29.44,-4.82 41.71,-4.82 a 120.21,120.21 0 0 1 30.05,3.58 250.22,250.22 0 0 0 61.75,7.89 237.16,237.16 0 0 0 42.21,-3.81 c 33.87,-6.15 57.36,-21.17 71.83,-45.92 12.36,-21.13 18.31,-46.75 16.78,-72.13 a 123.08,123.08 0 0 0 -32.67,-76.88 c -6.47,-7 -13.06,-14 -19.7,-21 1.71,1.2 3.46,2.35 5.26,3.4 a 76.22,76.22 0 0 0 38.65,10.52 82,82 0 0 0 30.17,-5.87 126.34,126.34 0 0 0 47.12,-33 c 21.92,-24.07 32.47,-54 32.27,-91.55 a 159.94,159.94 0 0 0 -8.69,-52.6 z M 373.35897,43 a 61.59,61.59 0 0 1 14.88,-15.35 c 7,-5.13 14.22,-7.68 21.57,-7.68 a 37.83,37.83 0 0 1 18.25,5.07 c 16.7,9.16 27.35,24.06 36.37,40.17 a 140.05,140.05 0 0 1 15.55,44.07 c 5.55,30.07 2.61,56.94 -12.93,81.61 a 106.35,106.35 0 0 1 -34.19,34.38 60,60 0 0 1 -31.62,9.3 c -16.59,0 -32.71,-7.39 -45,-21.59 -12.61,-14.62 -19,-32.11 -19.92,-51.15 -1.99,-43.96 12.92,-82.92 37.04,-118.83 z m -56.73,123.7 a 102.69,102.69 0 0 0 24.49,59.34 87.06,87.06 0 0 0 12.37,11.82 94.64,94.64 0 0 0 -32.61,-5.64 v 0 a 115,115 0 0 0 -20.36,1.88 122.58,122.58 0 0 0 -25.75,7.6 82.28,82.28 0 0 0 16.61,-14.62 c 14.62,-16.81 23.07,-37.06 25.25,-60.38 z m -128.34,104.23 a 183.72,183.72 0 0 0 -14.05,-40.5 c 3.08,2.66 6.3,5.24 9.7,7.74 a 81.37,81.37 0 0 0 48.38,16.26 76.64,76.64 0 0 0 26.92,-4.81 115.62,115.62 0 0 0 -10.48,7.18 c -13.88,10.68 -25.84,24.84 -35.54,42.06 a 309.18,309.18 0 0 1 -32.32,47.14 c 10.93,-22.16 13.42,-47.36 7.39,-75.07 z m -37.24,-154.13 c 5.19,-32.08 15.8,-57.37 35.19,-78.49 6.59,-7.2 14.16,-13.18 23.62,-16.24 a 36.29,36.29 0 0 1 11.29,-1.87 c 10.13,0 19,4.71 27,12.32 16.44,15.66 26,35.66 34.62,56.15 7.76,18.51 13,37.82 14.22,57.89 1.51,24.88 -3.85,48.05 -20.67,67.39 -11.82,13.58 -27.7,20.5 -44,20.5 a 61.55,61.55 0 0 1 -36.55,-12.41 c -25.95,-19.08 -42.18,-43.93 -45.37,-76.47 -1.08,-10.97 -0.63,-21.92 0.65,-28.77 z M 80.238966,365.26 c -28.55,-14.9 -48.39,-37 -56.53,-68.64 -2.74,-10.68 -4,-21.56 -3.75,-28.53 0.22,-32.5 6.84,-59.09 22.76,-83 5.42,-8.13 12,-15.19 20.86,-19.67 a 34.73,34.73 0 0 1 15.78,-4 c 8.22,0 16.08,3.17 23.640004,8.43 18.64,13 31.19,31.26 42.8,50.2 10.49,17.1 18.63,35.39 22.91,55 5.29,24.36 3.54,48.08 -10.13,69.76 -11.34,18 -29.71,27.67 -49.19,27.67 A 63.09,63.09 0 0 1 80.238966,365.26 Z M 509.35897,538.65 c -12.92,22.09 -33.86,31.92 -58.14,36.33 a 215.88,215.88 0 0 1 -38.64,3.45 229.13,229.13 0 0 1 -56.81,-7.33 141.07,141.07 0 0 0 -35,-4.2 c -15.25,0 -30.52,2.11 -45.73,5.23 -16.29,3.34 -32.14,8.55 -48.56,11.32 a 101.66,101.66 0 0 1 -16.77,1.4 98.33,98.33 0 0 1 -92.19,-63.28 c -3.93,-10.34 -5.84,-21.15 -5.59,-27.38 0.57,-42.32 15.16,-72.78 44.47,-96.28 30.78,-24.7 54.9,-54.93 74.24,-89.27 16.3,-28.93 40.08,-48.87 73.43,-54.9 a 94.23,94.23 0 0 1 16.8,-1.56 c 26.88,0 48.72,12.81 65.32,36.52 a 560.79,560.79 0 0 0 57.42,69.62 c 17.64,18.14 35.26,36.32 52.41,54.92 35.62,38.68 33.05,91.69 13.34,125.41 z m 88.09,-198.32 a 106.26,106.26 0 0 1 -39.69,27.85 61.91,61.91 0 0 1 -22.82,4.48 c -20.26,0 -39,-10.67 -50.42,-30 -9.84,-16.6 -13.11,-35 -10.64,-53.85 5.73,-43.63 27.24,-79.37 57.29,-110.49 a 61.81,61.81 0 0 1 17.33,-12.51 38.55,38.55 0 0 1 17,-4.26 c 7.91,0 15.48,2.91 22.65,8.68 14.83,12 22.7,28.49 28.76,45.93 a 140.23,140.23 0 0 1 7.58,46.11 c 0.19,30.56 -7.41,56.5 -27.04,78.06 z"
     id="path22" />
</svg>
