<?xml version="1.0" encoding="UTF-8" standalone="no"?>
<!-- Created with Inkscape (http://www.inkscape.org/) -->

<svg
   width="154.18925mm"
   height="83.579224mm"
   viewBox="0 0 154.18925 83.579224"
   version="1.1"
   id="svg5"
   xml:space="preserve"
   inkscape:version="1.2.2 (732a01da63, 2022-12-09)"
   sodipodi:docname="drawing.svg"
   xmlns:inkscape="http://www.inkscape.org/namespaces/inkscape"
   xmlns:sodipodi="http://sodipodi.sourceforge.net/DTD/sodipodi-0.dtd"
   xmlns="http://www.w3.org/2000/svg"
   xmlns:svg="http://www.w3.org/2000/svg"><sodipodi:namedview
     id="namedview7"
     pagecolor="#ffffff"
     bordercolor="#000000"
     borderopacity="0.25"
     inkscape:showpageshadow="2"
     inkscape:pageopacity="0.0"
     inkscape:pagecheckerboard="0"
     inkscape:deskcolor="#d1d1d1"
     inkscape:document-units="mm"
     showgrid="false"
     inkscape:zoom="1.0544998"
     inkscape:cx="335.7042"
     inkscape:cy="97.676645"
     inkscape:window-width="1920"
     inkscape:window-height="1017"
     inkscape:window-x="1912"
     inkscape:window-y="-8"
     inkscape:window-maximized="1"
     inkscape:current-layer="layer1" /><defs
     id="defs2"><style
       id="style238">.cls-1{fill:#f0cfbe;}</style></defs><g
     inkscape:label="Layer 1"
     inkscape:groupmode="layer"
     id="layer1"
     transform="translate(-11.438529,-142.18444)"><g
       id="g58"
       transform="matrix(0.26456047,0,0,0.32097664,-22.913133,134.41707)"><title
         id="title53">Layer 1</title><line
         stroke-width="2"
         stroke-linecap="undefined"
         stroke-linejoin="undefined"
         id="svg_1"
         y2="280"
         x2="700"
         y1="280"
         x1="143"
         stroke="#f0cfbe"
         fill="#f0cfbe" /><path
         stroke="#f0cfbe"
         id="svg_22"
         d="m 701.93909,280.03323 -16.04929,-4.07916 h 10.56973 l 16.04929,4.07916 -16.04929,4.07916 H 685.8898 Z"
         fill="#f0cfbe" /><path
         transform="rotate(180,143.302,280.033)"
         stroke="#f0cfbe"
         id="svg_23"
         d="m 146.04166,280.03323 -16.0493,-4.07916 h 10.56973 l 16.04929,4.07916 -16.04929,4.07916 h -10.56973 z"
         fill="#f0cfbe" /></g><g
       style="display:block"
       id="g249"
       transform="matrix(0.07991476,0,0,0.07205939,48.464137,127.94767)"><path
         class="cls-1"
         d="m 813.57,407.16 a 157.17,157.17 0 0 0 -12.73,-28.59 94.17,94.17 0 0 0 -22.38,-26.36 c -10.8,-8.7 -22.64,-13.11 -35.19,-13.11 v 0 a 58.53,58.53 0 0 0 -25.81,6.3 81.58,81.58 0 0 0 -22.92,16.6 c -36.41,37.71 -56.93,77.54 -62.73,121.78 -3.11,23.72 1.48,46.77 13.27,66.65 0.69,1.17 1.42,2.32 2.16,3.45 q -5.73,-5.93 -11.52,-11.87 a 543.91,543.91 0 0 1 -55.38,-67.15 114.69,114.69 0 0 0 -25.49,-26.63 76,76 0 0 0 24.15,3.91 80.44,80.44 0 0 0 42.12,-12.27 126.18,126.18 0 0 0 40.61,-40.75 c 17.35,-27.53 22.49,-58.86 15.7,-95.79 a 166.37,166.37 0 0 0 -35.33,-76.23 94.68,94.68 0 0 0 -26.66,-22 57.66,57.66 0 0 0 -27.86,-7.53 v 0 0 c -11.69,0 -22.92,3.88 -33.38,11.54 a 81.57,81.57 0 0 0 -19.66,20.34 c -24.44,36.38 -37.68,72.29 -40.16,109.14 -1.69,-19.67 -6.74,-39.36 -15.41,-60.05 -8.59,-20.51 -19.43,-44 -39.27,-62.9 C 427.28,203.8 413.56,197.8 398.92,197.8 v 0 a 56.52,56.52 0 0 0 -17.45,2.84 c -11.74,3.8 -22.28,10.92 -32.21,21.76 -21.34,23.29 -34.09,51.44 -40.13,88.58 -1.72,9.35 -2,22.09 -0.86,34.14 A 127.37,127.37 0 0 0 313,369.26 130.29,130.29 0 0 0 292.25,351.1 c -11.46,-8 -23.26,-12 -35.07,-12 a 54.78,54.78 0 0 0 -24.78,6.09 c -11,5.55 -20.34,14.2 -28.5,26.43 -17.52,26.28 -25.83,56.05 -26.11,93.68 -0.27,9.5 1.36,22.14 4.37,33.87 9.18,35.73 31.6,63.12 66.66,81.4 a 83.51,83.51 0 0 0 38.39,9.62 77.51,77.51 0 0 0 28.93,-5.61 c -30.56,26.91 -45.76,61.9 -46.42,106.73 -0.31,9.57 2.32,22.94 6.89,35 a 117.38,117.38 0 0 0 43.87,55.58 118.68,118.68 0 0 0 67,20.59 121.14,121.14 0 0 0 20.09,-1.68 c 10.16,-1.71 19.87,-4.21 29.26,-6.63 6.91,-1.79 13.44,-3.47 20,-4.82 15.8,-3.24 29.44,-4.82 41.71,-4.82 a 120.21,120.21 0 0 1 30.05,3.58 250.22,250.22 0 0 0 61.75,7.89 237.16,237.16 0 0 0 42.21,-3.81 c 33.87,-6.15 57.36,-21.17 71.83,-45.92 12.36,-21.13 18.31,-46.75 16.78,-72.13 a 123.08,123.08 0 0 0 -32.67,-76.88 c -6.47,-7 -13.06,-14 -19.7,-21 1.71,1.2 3.46,2.35 5.26,3.4 a 76.22,76.22 0 0 0 38.65,10.52 82,82 0 0 0 30.17,-5.87 126.34,126.34 0 0 0 47.12,-33 c 21.92,-24.07 32.47,-54 32.27,-91.55 a 159.94,159.94 0 0 0 -8.69,-52.6 z M 551.12,240.57 A 61.59,61.59 0 0 1 566,225.22 c 7,-5.13 14.22,-7.68 21.57,-7.68 a 37.83,37.83 0 0 1 18.25,5.07 c 16.7,9.16 27.35,24.06 36.37,40.17 a 140.05,140.05 0 0 1 15.55,44.07 c 5.55,30.07 2.61,56.94 -12.93,81.61 a 106.35,106.35 0 0 1 -34.19,34.38 60,60 0 0 1 -31.62,9.3 c -16.59,0 -32.71,-7.39 -45,-21.59 -12.61,-14.62 -19,-32.11 -19.92,-51.15 -1.99,-43.96 12.92,-82.92 37.04,-118.83 z m -56.73,123.7 a 102.69,102.69 0 0 0 24.49,59.34 87.06,87.06 0 0 0 12.37,11.82 94.64,94.64 0 0 0 -32.61,-5.64 v 0 a 115,115 0 0 0 -20.36,1.88 122.58,122.58 0 0 0 -25.75,7.6 82.28,82.28 0 0 0 16.61,-14.62 c 14.62,-16.81 23.07,-37.06 25.25,-60.38 z M 366.05,468.5 A 183.72,183.72 0 0 0 352,428 c 3.08,2.66 6.3,5.24 9.7,7.74 a 81.37,81.37 0 0 0 48.38,16.26 76.64,76.64 0 0 0 26.92,-4.81 115.62,115.62 0 0 0 -10.48,7.18 c -13.88,10.68 -25.84,24.84 -35.54,42.06 a 309.18,309.18 0 0 1 -32.32,47.14 c 10.93,-22.16 13.42,-47.36 7.39,-75.07 z M 328.81,314.37 C 334,282.29 344.61,257 364,235.88 c 6.59,-7.2 14.16,-13.18 23.62,-16.24 a 36.29,36.29 0 0 1 11.29,-1.87 c 10.13,0 19,4.71 27,12.32 16.44,15.66 26,35.66 34.62,56.15 7.76,18.51 13,37.82 14.22,57.89 1.51,24.88 -3.85,48.05 -20.67,67.39 -11.82,13.58 -27.7,20.5 -44,20.5 a 61.55,61.55 0 0 1 -36.55,-12.41 c -25.95,-19.08 -42.18,-43.93 -45.37,-76.47 -1.08,-10.97 -0.63,-21.92 0.65,-28.77 z M 258,562.83 c -28.55,-14.9 -48.39,-37 -56.53,-68.64 -2.74,-10.68 -4,-21.56 -3.75,-28.53 0.22,-32.5 6.84,-59.09 22.76,-83 5.42,-8.13 12,-15.19 20.86,-19.67 a 34.73,34.73 0 0 1 15.78,-4 c 8.22,0 16.08,3.17 23.64,8.43 18.64,13 31.19,31.26 42.8,50.2 10.49,17.1 18.63,35.39 22.91,55 5.29,24.36 3.54,48.08 -10.13,69.76 -11.34,18 -29.71,27.67 -49.19,27.67 A 63.09,63.09 0 0 1 258,562.83 Z m 429.12,173.39 c -12.92,22.09 -33.86,31.92 -58.14,36.33 a 215.88,215.88 0 0 1 -38.64,3.45 229.13,229.13 0 0 1 -56.81,-7.33 141.07,141.07 0 0 0 -35,-4.2 c -15.25,0 -30.52,2.11 -45.73,5.23 -16.29,3.34 -32.14,8.55 -48.56,11.32 a 101.66,101.66 0 0 1 -16.77,1.4 98.33,98.33 0 0 1 -92.19,-63.28 c -3.93,-10.34 -5.84,-21.15 -5.59,-27.38 0.57,-42.32 15.16,-72.78 44.47,-96.28 30.78,-24.7 54.9,-54.93 74.24,-89.27 16.3,-28.93 40.08,-48.87 73.43,-54.9 a 94.23,94.23 0 0 1 16.8,-1.56 c 26.88,0 48.72,12.81 65.32,36.52 a 560.79,560.79 0 0 0 57.42,69.62 c 17.64,18.14 35.26,36.32 52.41,54.92 35.62,38.68 33.05,91.69 13.34,125.41 z M 775.21,537.9 a 106.26,106.26 0 0 1 -39.69,27.85 61.91,61.91 0 0 1 -22.82,4.48 c -20.26,0 -39,-10.67 -50.42,-30 -9.84,-16.6 -13.11,-35 -10.64,-53.85 5.73,-43.63 27.24,-79.37 57.29,-110.49 a 61.81,61.81 0 0 1 17.33,-12.51 38.55,38.55 0 0 1 17,-4.26 c 7.91,0 15.48,2.91 22.65,8.68 14.83,12 22.7,28.49 28.76,45.93 a 140.23,140.23 0 0 1 7.58,46.11 c 0.19,30.56 -7.41,56.5 -27.04,78.06 z"
         id="path242" /></g><path
       d="m 59.85189,209.68602 q -0.79534,0 -1.513724,-0.20051 a 2.1771994,2.0017243 0 0 1 -0.908231,-0.50857 2.9658762,2.7268364 0 0 1 -0.323274,-0.35241 48.542873,44.630478 0 0 1 0.285301,-1.17659 61.416728,56.466741 0 0 1 0.343271,-1.26482 110.76317,101.83601 0 0 1 0.753797,-2.5169 121.09035,111.33088 0 0 1 0.05431,-0.17225 q 0.436166,-1.37993 0.885151,-2.71269 a 206.96375,190.28316 0 0 1 0.439231,-1.28841 168.40891,154.83571 0 0 1 0.420264,-1.20019 q 0.353024,-0.99306 0.648586,-1.77763 a 73.433656,67.515145 0 0 1 0.09542,-0.25096 q 0.333535,-0.87278 0.513141,-1.32097 a 4.762335,4.3785064 0 0 1 0.04518,-0.10521 q 0.05295,-0.12035 0.132847,-0.2873 a 22.16197,20.375788 0 0 1 0.07854,-0.16173 6.5500706,6.0221565 0 0 1 0.298121,-0.53169 7.6635571,7.0458996 0 0 1 0.138084,-0.21135 q 0.25658,-0.37743 0.590095,-0.64868 0.333534,-0.27127 0.718384,-0.27127 a 1.0893694,1.0015698 0 0 1 0.437699,0.0877 1.5460527,1.421446 0 0 1 0.280686,0.14817 65.670553,60.377723 0 0 0 -0.798423,1.78707 84.194963,77.409124 0 0 0 -0.805113,1.96352 q -0.80816,2.0522 -1.552202,4.23415 a 130.07932,119.59537 0 0 0 -1.203792,3.73735 118.67302,109.10837 0 0 0 -0.155925,0.52038 q -0.615754,2.07579 -1.026243,3.77417 0.355081,0.0467 0.597271,0.0703 a 8.6805757,7.9809503 0 0 0 0.0058,4.7e-4 q 0.243741,0.0235 0.500301,0.0235 1.642014,0 3.168558,-0.69586 1.526562,-0.69586 2.847861,-1.91067 a 14.908402,13.706835 0 0 0 2.259299,-2.68578 16.533477,15.200933 0 0 0 0.06264,-0.0977 q 1.000603,-1.56863 1.55222,-3.32598 0.5516,-1.75736 0.5516,-3.50291 a 10.661761,9.8024575 0 0 0 -0.0898,-1.31246 q -0.154957,-1.053 -0.577275,-1.8366 a 4.9044713,4.5091871 0 0 0 -0.791752,-1.07234 4.0998875,3.7694501 0 0 0 -1.055507,-0.75578 5.2410829,4.8186689 0 0 0 -1.759502,-0.52602 6.8061211,6.2575703 0 0 0 -0.985728,-0.0636 7.1832699,6.6043221 0 0 0 -1.770789,0.19437 6.0913347,5.6003933 0 0 0 -1.231001,0.41893 5.7418951,5.2791173 0 0 0 -1.416232,0.90534 5.0968939,4.6861011 0 0 0 -0.687587,0.74586 q -0.769701,1.03789 -0.769701,2.33527 a 4.1671071,3.831252 0 0 0 0.0077,0.23305 q 0.0077,0.10716 0.02094,0.20099 a 2.304968,2.1191952 0 0 0 0.0097,0.0613 4.4770363,4.1162018 0 0 0 0.03898,0.18871 q 0.02056,0.0888 0.04421,0.16653 a 2.70726,2.4890637 0 0 0 0.0058,0.0222 2.6708278,2.4555678 0 0 1 -0.414601,-0.0273 q -0.523904,-0.0759 -0.778428,-0.36185 a 1.5286064,1.4054057 0 0 1 -0.343794,-0.84353 1.9437265,1.7870685 0 0 1 -0.002,-0.0883 2.7980835,2.5725671 0 0 1 0.227315,-0.99731 3.9746845,3.654338 0 0 1 0.401257,-0.66568 q 0.628592,-0.8374 1.744647,-1.54504 1.116053,-0.70766 2.578463,-1.14406 a 9.8941214,9.0966885 0 0 1 2.798077,-0.43261 11.190282,10.288382 0 0 1 0.306343,-0.004 q 2.309064,0 3.707337,0.86099 1.398273,0.86097 2.039684,2.32347 a 8.7908978,8.0823805 0 0 1 0.565464,2.07202 11.049685,10.159117 0 0 1 0.07602,1.2068 q 0,2.05219 -0.692728,3.92748 -0.692707,1.8753 -1.911393,3.44393 -1.218667,1.56864 -2.783708,2.73626 -1.56504,1.16764 -3.348164,1.81633 a 9.8356255,9.0429061 0 0 1 -2.902764,0.62557 9.1464947,8.4093178 0 0 1 -0.6763,0.0232 z m 32.070469,-5.87355 0.333532,0.23587 q -0.384857,1.06149 -1.231512,1.93427 a 11.365258,10.449256 0 0 1 -1.511166,1.30492 10.316426,9.4849559 0 0 1 -0.297614,0.20475 15.623188,14.364011 0 0 1 -0.754283,0.47082 q -0.381771,0.22269 -0.732753,0.39394 a 8.2705868,7.6040047 0 0 1 -0.270421,0.12588 q -0.718373,1.58045 -1.513736,2.88961 a 13.36081,12.283973 0 0 1 -0.605472,0.90721 q -0.512113,0.69398 -1.04936,1.18038 a 3.4307696,3.1542608 0 0 1 -0.625491,0.45525 2.2998369,2.1144775 0 0 1 -1.208927,0.32316 q -0.564435,0 -1.026261,-0.31843 -0.405873,-0.27977 -0.455126,-0.87892 a 2.4737869,2.2744078 0 0 1 -0.0062,-0.17081 q 0,-0.70768 0.474647,-1.30918 a 5.2426222,4.8200841 0 0 1 0.7389,-0.74868 6.4941399,5.9707335 0 0 1 0.479759,-0.35997 12.005641,11.038026 0 0 1 1.356191,-0.79682 13.49371,12.406161 0 0 1 0.272982,-0.13499 465.7503,428.21236 0 0 1 0.862578,-0.41279 395.39849,363.53067 0 0 1 0.81792,-0.38921 23.740863,21.827428 0 0 0 0.434033,-1.08272 28.291276,26.011093 0 0 0 0.245796,-0.69822 35.452996,32.595601 0 0 0 0.31761,-1.00534 46.022906,42.313611 0 0 0 0.31096,-1.10584 14.765239,13.57521 0 0 1 -0.997519,1.1884 11.075342,10.182705 0 0 1 -1.042162,0.96996 q -0.841016,0.67982 -1.689724,0.82323 a 2.5066272,2.3046013 0 0 1 -0.452581,0.0378 q -0.923624,0 -1.423923,-0.63689 a 2.518429,2.315452 0 0 1 -0.397669,-0.80957 q -0.102548,-0.38213 -0.102548,-0.84164 0,-1.2266 0.654224,-2.33527 0.654234,-1.10865 1.706145,-1.95784 a 9.0972352,8.3640271 0 0 1 1.650226,-1.0681 8.1643695,7.506348 0 0 1 0.581882,-0.26466 6.7091402,6.1684056 0 0 1 0.994433,-0.32835 q 0.571622,-0.14051 1.10272,-0.15387 a 4.0542193,3.7274625 0 0 1 0.109377,-0.002 q 0.63218,0 0.958515,0.1619 a 0.80920184,0.74398284 0 0 1 0.106283,0.0622 0.96827136,0.89023182 0 0 1 0.175909,0.15619 0.64243544,0.59065726 0 0 1 0.144667,0.37458 0.66757869,0.61377406 0 0 1 -0.01559,0.13391 q -0.02219,0.0911 -0.07699,0.15763 a 0.39716057,0.36515074 0 0 1 -0.03651,0.0387 2.852988,2.6230466 0 0 1 -0.05233,0.0472 q -0.07238,0.0633 -0.112288,0.0868 a 0.16676638,0.15332556 0 0 1 -0.01559,0.007 0.68605129,0.63075781 0 0 0 -0.291442,-0.23589 0.89797286,0.82559923 0 0 0 -0.09327,-0.0353 1.4347041,1.3190717 0 0 0 -0.229906,-0.0534 q -0.114419,-0.0184 -0.246297,-0.025 a 2.9479166,2.7103242 0 0 0 -0.165227,-0.004 3.4718196,3.1920025 0 0 0 -1.583505,0.35808 4.3118091,3.9642915 0 0 0 -0.353551,0.18445 6.4228151,5.9051574 0 0 0 -1.609688,1.3389 7.2294513,6.6467814 0 0 0 -0.04518,0.0528 8.9745978,8.2512748 0 0 0 -0.911819,1.30728 7.9642494,7.3223574 0 0 0 -0.229873,0.45007 5.9620266,5.4815069 0 0 0 -0.274008,0.71285 q -0.149344,0.50197 -0.149344,0.95014 a 2.493799,2.292807 0 0 0 0.02243,0.31987 q 0.02529,0.16279 0.07739,0.29484 a 1.0190709,0.93693717 0 0 0 0.143705,0.24628 q 0.243744,0.29485 0.654235,0.29485 a 1.4593342,1.3417167 0 0 0 0.533151,-0.10235 q 0.435123,-0.15762 0.949272,-0.55715 a 6.9657037,6.404291 0 0 0 0.300692,-0.24862 q 1.039084,-0.90816 2.01403,-2.20553 0.07699,-0.33025 0.141192,-0.58971 a 59.81423,54.9934 0 0 1 0.03428,-0.13873 q 0.0517,-0.20616 0.122175,-0.48214 a 178.99011,164.5641 0 0 1 0.0093,-0.0396 q 0.05583,-0.23965 0.226811,-0.53545 a 4.2846134,3.9392876 0 0 1 0.145256,-0.23116 0.96621879,0.88834475 0 0 1 0.708104,-0.42082 1.4967924,1.3761559 0 0 1 0.228347,-0.0161 q 0.128187,0 0.256558,0.0124 0.120043,0.0106 0.262721,0.0534 a 1.8139052,1.6677104 0 0 1 0.01957,0.005 2.3516626,2.1621264 0 0 1 -0.0136,0.21136 q -0.04358,0.401 -0.230398,1.16857 a 24.814839,22.814845 0 0 1 -0.211413,0.79825 q -0.200621,0.70435 -0.481318,1.53702 a 46.752061,42.983998 0 0 1 -0.75274,2.0456 52.918824,48.653741 0 0 1 -0.286327,0.70248 8.6354202,7.9394339 0 0 0 1.248429,-0.68549 9.9844324,9.1797197 0 0 0 0.406402,-0.28165 q 0.808335,-0.58972 1.475384,-1.35633 0.667064,-0.76663 1.051912,-1.663 z m 9.980331,0 0.33352,0.23587 q -0.38482,1.06149 -1.2315,1.93427 a 11.365258,10.449256 0 0 1 -1.511154,1.30492 10.316426,9.4849559 0 0 1 -0.29762,0.20475 15.623188,14.364011 0 0 1 -0.754298,0.47082 q -0.38177,0.22269 -0.73273,0.39394 a 8.2705868,7.6040047 0 0 1 -0.27043,0.12588 q -0.71839,1.58045 -1.51373,2.88961 a 13.36081,12.283973 0 0 1 -0.60549,0.90721 q -0.5121,0.69398 -1.04934,1.18038 a 3.4307696,3.1542608 0 0 1 -0.625502,0.45525 2.2998369,2.1144775 0 0 1 -1.208942,0.32316 q -0.56444,0 -1.026231,-0.31843 -0.405893,-0.27977 -0.455158,-0.87892 a 2.4737869,2.2744078 0 0 1 -0.0064,-0.17081 q 0,-0.70768 0.474653,-1.30918 a 5.2426222,4.8200841 0 0 1 0.7389,-0.7487 6.4941399,5.9707335 0 0 1 0.47979,-0.35995 12.005641,11.038026 0 0 1 1.35618,-0.79682 13.49371,12.406161 0 0 1 0.27299,-0.13499 465.7503,428.21236 0 0 1 0.86255,-0.41279 395.39849,363.53067 0 0 1 0.81794,-0.38921 23.740863,21.827428 0 0 0 0.43412,-1.08272 28.291276,26.011093 0 0 0 0.24577,-0.69822 35.452996,32.595601 0 0 0 0.31762,-1.00534 46.022906,42.313611 0 0 0 0.31097,-1.10584 14.765239,13.57521 0 0 1 -0.99752,1.1884 11.075342,10.182705 0 0 1 -1.04217,0.96996 q -0.84103,0.67982 -1.689741,0.82323 a 2.5066272,2.3046013 0 0 1 -0.452565,0.0378 q -0.923633,0 -1.423935,-0.63689 a 2.518429,2.315452 0 0 1 -0.397741,-0.80957 q -0.102545,-0.38213 -0.102545,-0.84164 0,-1.2266 0.654251,-2.33527 0.654227,-1.10865 1.706127,-1.95784 a 9.0972352,8.3640271 0 0 1 1.650219,-1.0681 8.1643695,7.506348 0 0 1 0.58189,-0.26466 6.7091402,6.1684056 0 0 1 0.99444,-0.32835 q 0.57163,-0.14051 1.1027,-0.15387 a 4.0542193,3.7274625 0 0 1 0.10938,-0.002 q 0.63219,0 0.958538,0.1619 a 0.80920184,0.74398284 0 0 1 0.10628,0.0622 0.96827136,0.89023182 0 0 1 0.1761,0.15619 0.64243544,0.59065726 0 0 1 0.14467,0.37458 0.66757869,0.61377406 0 0 1 -0.0156,0.13391 q -0.0222,0.0911 -0.077,0.15763 a 0.39716057,0.36515074 0 0 1 -0.0365,0.0387 2.852988,2.6230466 0 0 1 -0.0523,0.0472 q -0.0724,0.0633 -0.11228,0.0868 a 0.16676638,0.15332556 0 0 1 -0.0156,0.007 0.68605129,0.63075781 0 0 0 -0.291468,-0.23589 0.89797286,0.82559923 0 0 0 -0.0935,-0.0353 1.4347041,1.3190717 0 0 0 -0.22987,-0.0534 q -0.11443,-0.0184 -0.24631,-0.025 a 2.9479166,2.7103242 0 0 0 -0.16523,-0.004 3.4718196,3.1920025 0 0 0 -1.58352,0.35808 4.3118091,3.9642915 0 0 0 -0.35353,0.18445 6.4228151,5.9051574 0 0 0 -1.60968,1.3389 7.2294513,6.6467814 0 0 0 -0.0452,0.0528 8.9745978,8.2512748 0 0 0 -0.911821,1.30728 7.9642494,7.3223574 0 0 0 -0.229889,0.45007 5.9620266,5.4815069 0 0 0 -0.274016,0.71285 q -0.14933,0.50197 -0.14933,0.95014 a 2.493799,2.292807 0 0 0 0.02243,0.31987 q 0.02521,0.16279 0.07763,0.29484 a 1.0190709,0.93693717 0 0 0 0.143713,0.24628 q 0.243745,0.29485 0.654251,0.29485 a 1.4593342,1.3417167 0 0 0 0.533132,-0.10235 q 0.43514,-0.15762 0.94929,-0.55715 a 6.9657037,6.404291 0 0 0 0.30069,-0.24862 q 1.03909,-0.90816 2.01404,-2.20553 0.077,-0.33025 0.14119,-0.58971 a 59.81423,54.9934 0 0 1 0.0343,-0.13873 q 0.0517,-0.20616 0.12217,-0.48214 a 178.99011,164.5641 0 0 1 0.009,-0.0396 q 0.0558,-0.23965 0.22678,-0.53545 a 4.2846134,3.9392876 0 0 1 0.14526,-0.23116 0.96621879,0.88834475 0 0 1 0.708128,-0.42082 1.4967924,1.3761559 0 0 1 0.22832,-0.0161 q 0.12839,0 0.25658,0.0124 0.12005,0.0106 0.26271,0.0534 a 1.8139052,1.6677104 0 0 1 0.0196,0.005 2.3516626,2.1621264 0 0 1 -0.0136,0.21136 q -0.0436,0.401 -0.23037,1.16857 a 24.814839,22.814845 0 0 1 -0.21141,0.79825 q -0.20065,0.70435 -0.48132,1.53702 a 46.752061,42.983998 0 0 1 -0.752758,2.0456 52.918824,48.653741 0 0 1 -0.28632,0.70248 8.6354202,7.9394339 0 0 0 1.248448,-0.68549 9.9844324,9.1797197 0 0 0 0.40639,-0.28165 q 0.808274,-0.58972 1.475344,-1.35633 0.66706,-0.76663 1.05193,-1.663 z m -19.935012,0.0708 0.30787,0.23589 a 4.21842,3.8784293 0 0 1 -0.455127,0.75388 2.9191815,2.6839051 0 0 1 -0.994435,0.81475 q -0.885683,0.43496 -1.691276,0.45856 a 2.8919858,2.6589013 0 0 1 -0.09193,0.002 3.1541938,2.8999761 0 0 1 -0.60293,-0.0519 2.9181553,2.6829615 0 0 1 -0.03844,-0.007 q -0.30787,-0.059 -0.590099,-0.17688 a 10.092189,9.278792 0 0 1 -1.186348,1.21483 8.5610171,7.8710267 0 0 1 -0.72506,0.55431 4.690497,4.3124585 0 0 1 -0.73068,0.41375 q -0.448987,0.20145 -0.885656,0.26514 a 2.5471643,2.3418712 0 0 1 -0.39767,0.0287 2.8119379,2.585305 0 0 1 -0.569576,-0.0496 q -0.34073,-0.0646 -0.594207,-0.21467 a 1.3926276,1.2803865 0 0 1 -0.401257,-0.36091 q -0.461824,-0.6251 -0.461824,-1.52146 a 5.4114411,4.9752967 0 0 1 0.138471,-1.09923 6.4294858,5.9112905 0 0 1 0.117915,-0.41043 q 0.25656,-0.77843 0.679907,-1.46249 a 5.475069,5.0337965 0 0 1 0.419216,-0.58406 4.0239448,3.699628 0 0 1 0.530052,-0.5246 2.2315909,2.051732 0 0 1 0.363303,-0.24156 q 0.347905,-0.18304 0.701454,-0.18304 0.128193,0 0.269381,0.0353 a 2.4994433,2.2979964 0 0 1 0.253495,0.0768 2.3018893,2.1163645 0 0 1 0.01551,0.005 q -0.230902,0.1887 -0.551617,0.69585 a 8.5399783,7.8516845 0 0 0 -0.346354,0.61094 11.100484,10.205821 0 0 0 -0.256561,0.54491 13.516801,12.427391 0 0 0 -0.462328,1.24594 12.44847,11.445164 0 0 0 -0.01164,0.0396 q -0.192386,0.63688 -0.192386,1.08507 0,0.61944 0.196517,0.94072 a 0.88463158,0.81333318 0 0 0 0.06011,0.0854 0.90156477,0.82890169 0 0 0 0.228848,0.20332 0.78149297,0.71850721 0 0 0 0.438222,0.11519 q 0.538779,0 1.282803,-0.53073 a 7.6876741,7.0680728 0 0 0 0.783548,-0.64681 10.397499,9.5594954 0 0 0 0.678876,-0.70953 3.7211995,3.4212831 0 0 1 -0.911841,-1.0313 4.6032656,4.2322575 0 0 1 -0.204219,-0.39582 q -0.397669,-0.88457 -0.397669,-1.80452 a 4.3051386,3.9581586 0 0 1 0.242188,-1.33323 4.0983482,3.7680349 0 0 1 0.05297,-0.12926 3.0428453,2.797602 0 0 1 0.416653,-0.68312 2.6128445,2.4022579 0 0 1 0.442841,-0.41374 2.0607195,1.8946323 0 0 1 1.134509,-0.40385 2.6518423,2.4381125 0 0 1 0.225285,-0.009 q 1.051893,0 1.411089,0.51896 0.344313,0.49725 0.358669,1.23273 a 3.9090042,3.5939513 0 0 1 5.26e-4,0.0646 4.8629079,4.4709735 0 0 1 -0.107247,0.90674 q -0.121017,0.53876 -0.380241,1.13366 -0.487457,1.12047 -1.231501,2.15836 0.461825,0.23588 0.974946,0.23588 0.355083,0 0.787134,-0.11465 a 4.3384918,3.9888236 0 0 0 0.136527,-0.0387 2.7980835,2.5725671 0 0 0 0.589068,-0.25191 3.7140159,3.4146785 0 0 0 0.424363,-0.27883 2.7016155,2.4838741 0 0 0 0.568022,-0.59868 3.5118436,3.2288005 0 0 0 0.240157,-0.41563 z m 29.325232,0 0.30788,0.23589 a 4.21842,3.8784293 0 0 1 -0.45514,0.75388 2.9191815,2.6839051 0 0 1 -0.99445,0.81475 q -0.88566,0.43496 -1.69126,0.45856 a 2.8919858,2.6589013 0 0 1 -0.0919,0.002 3.1541938,2.8999761 0 0 1 -0.60293,-0.0519 2.9181553,2.6829615 0 0 1 -0.0384,-0.007 q -0.30788,-0.059 -0.5901,-0.17688 a 10.092189,9.278792 0 0 1 -1.18636,1.21483 8.5610171,7.8710267 0 0 1 -0.72502,0.55431 4.690497,4.3124585 0 0 1 -0.73071,0.41375 q -0.44899,0.20145 -0.88565,0.26514 a 2.5471643,2.3418712 0 0 1 -0.39767,0.0287 2.8119379,2.585305 0 0 1 -0.56958,-0.0496 q -0.34073,-0.0646 -0.59421,-0.21467 a 1.3926276,1.2803865 0 0 1 -0.40128,-0.36091 q -0.4618,-0.6251 -0.4618,-1.52146 a 5.4114411,4.9752967 0 0 1 0.13847,-1.09923 6.4294858,5.9112905 0 0 1 0.11811,-0.41043 q 0.25656,-0.77843 0.67989,-1.46249 a 5.475069,5.0337965 0 0 1 0.41923,-0.58406 4.0239448,3.699628 0 0 1 0.53006,-0.5246 2.2315909,2.051732 0 0 1 0.3633,-0.24156 q 0.3479,-0.18304 0.70144,-0.18304 0.12818,0 0.26939,0.0353 a 2.4994433,2.2979964 0 0 1 0.25347,0.0768 2.3018893,2.1163645 0 0 1 0.0156,0.005 q -0.2309,0.18872 -0.5516,0.69585 a 8.5399783,7.8516845 0 0 0 -0.34638,0.61095 11.100484,10.205821 0 0 0 -0.25655,0.5449 13.516801,12.427391 0 0 0 -0.46233,1.24595 12.44847,11.445164 0 0 0 -0.0116,0.0396 q -0.19239,0.63689 -0.19239,1.08506 0,0.61944 0.19654,0.94071 a 0.88463158,0.81333318 0 0 0 0.0601,0.0854 0.90156477,0.82890169 0 0 0 0.22886,0.20333 0.78149297,0.71850721 0 0 0 0.4382,0.11519 q 0.53879,0 1.28282,-0.53075 a 7.6876741,7.0680728 0 0 0 0.78364,-0.64681 10.397499,9.5594954 0 0 0 0.67888,-0.70954 3.7211995,3.4212831 0 0 1 -0.91184,-1.03128 4.6032656,4.2322575 0 0 1 -0.20422,-0.39584 q -0.39769,-0.88456 -0.39769,-1.80451 a 4.3051386,3.9581586 0 0 1 0.24221,-1.33322 4.0983482,3.7680349 0 0 1 0.0527,-0.12928 3.0428453,2.797602 0 0 1 0.41665,-0.68311 2.6128445,2.4022579 0 0 1 0.44284,-0.41374 2.0607195,1.8946323 0 0 1 1.13451,-0.40385 2.6518423,2.4381125 0 0 1 0.22526,-0.009 q 1.05192,0 1.41111,0.51897 0.34431,0.49723 0.35868,1.23271 a 3.9090042,3.5939513 0 0 1 5.2e-4,0.0646 4.8629079,4.4709735 0 0 1 -0.10724,0.90674 q -0.12102,0.53876 -0.38025,1.13366 -0.48745,1.12047 -1.2315,2.15835 0.46181,0.23589 0.97495,0.23589 0.35508,0 0.78714,-0.11465 a 4.3384918,3.9888236 0 0 0 0.13652,-0.0387 2.7980835,2.5725671 0 0 0 0.58907,-0.25191 3.7140159,3.4146785 0 0 0 0.42436,-0.27882 2.7016155,2.4838741 0 0 0 0.56804,-0.59868 3.5118436,3.2288005 0 0 0 0.24014,-0.41561 z m 3.18141,-3.67981 v -0.28307 a 4.4919169,4.1298832 0 0 1 0.02,-0.40479 q 0.06,-0.55951 0.30068,-0.8336 0.20013,-0.22788 0.41513,-0.31373 a 0.65936865,0.60622571 0 0 1 0.26478,-0.0519 0.65423738,0.601508 0 0 1 0.11539,0.009 q 0.12103,0.0198 0.19239,0.0854 0.10256,0.0943 0.10256,0.21231 0,0.11786 -0.077,0.37741 -0.077,0.25947 -0.077,0.66048 0,0.77842 0.33354,1.68657 0.33351,0.90818 0.66705,1.91069 0.33354,1.00251 0.33354,2.08759 0,0.30665 -0.0384,0.6015 a 4.3662007,4.0142993 0 0 1 -0.0755,0.40572 3.7678942,3.4642143 0 0 1 -0.04,0.14853 3.436414,3.1594503 0 0 0 1.28949,-0.47083 4.3246374,3.9760858 0 0 0 0.40382,-0.2722 4.2620359,3.9185299 0 0 0 0.56496,-0.52509 q 0.24885,-0.2755 0.4926,-0.62461 a 10.529374,9.680741 0 0 0 0.48182,-0.77277 l 0.23093,0.23588 a 5.4129805,4.9767121 0 0 1 -0.47671,0.95109 3.8566651,3.5458307 0 0 1 -0.98572,1.01856 q -0.97495,0.67228 -2.12948,0.83739 a 3.5149223,3.2316312 0 0 1 -0.44027,0.77182 2.7462576,2.5249183 0 0 1 -0.85538,0.71426 3.8366533,3.5274317 0 0 1 -1.76669,0.46706 4.6068575,4.2355599 0 0 1 -0.22167,0.005 4.4765231,4.11573 0 0 1 -0.76867,-0.0571 q -0.67939,-0.10894 -1.14272,-0.42642 -0.70557,-0.48355 -1.00061,-1.19121 a 4.3697926,4.0176018 0 0 1 -0.28068,-1.10583 4.0280498,3.7034022 0 0 1 -0.0136,-0.30948 4.6633014,4.2874547 0 0 1 0.0174,-0.39111 q 0.0396,-0.39439 0.16524,-0.65103 a 1.2766609,1.1737662 0 0 1 0.0222,-0.043 2.0324975,1.8686849 0 0 1 0.18172,-0.27552 q 0.14371,-0.17833 0.31866,-0.29061 0.2853,-0.1821 0.54647,-0.27646 a 1.9370557,1.7809355 0 0 1 0.0174,-0.007 2.2695624,2.0866431 0 0 0 0.12413,-0.0471 q 0.12664,-0.0524 0.20218,-0.1052 a 0.45155207,0.41515846 0 0 0 0.0457,-0.0364 q 0.76967,-0.77841 1.41109,-1.6276 0.64141,-0.84919 1.12888,-1.79274 z m 0.82099,6.27455 q 0.0515,-0.2359 0.077,-0.49537 0.0196,-0.19862 0.024,-0.45241 a 10.493967,9.648188 0 0 0 7.9e-4,-0.16084 q 0,-1.10866 -0.29506,-2.20552 a 51.369179,47.228991 0 0 1 -0.27246,-1.06431 41.839379,38.467263 0 0 1 -0.22783,-0.9997 q -0.5901,0.89637 -1.24433,1.71018 -0.52646,0.65481 -1.01139,1.13414 a 9.3178795,8.5668892 0 0 1 -0.23296,0.22221 4.3220717,3.973727 0 0 0 0.60602,0.86332 5.7080287,5.2479804 0 0 0 0.58702,0.55199 4.1409378,3.8071918 0 0 0 1.48961,0.77275 5.1353786,4.721484 0 0 0 0.49876,0.12356 z m -32.917121,7.0058 a 0.76250724,0.70105168 0 0 0 0.313013,-0.0716 q 0.445378,-0.18683 1.085257,-0.86005 0.885151,-0.93175 1.911397,-3.19625 -1.026246,0.47177 -1.911397,0.97893 a 8.2675079,7.6011741 0 0 0 -0.759421,0.48876 q -0.390498,0.28401 -0.690174,0.58452 -0.564436,0.56612 -0.564436,1.25018 0,0.2845 0.102032,0.48216 a 0.7917555,0.72794262 0 0 0 0.07761,0.11929 0.70503699,0.64821333 0 0 0 0.126252,0.12321 0.48387909,0.44488003 0 0 0 0.309932,0.10092 z m 9.980334,0 a 0.76250724,0.70105168 0 0 0 0.312997,-0.0716 q 0.445393,-0.18683 1.085272,-0.86005 0.885136,-0.93175 1.911396,-3.19625 -1.02626,0.47177 -1.911396,0.97893 a 8.2675079,7.6011741 0 0 0 -0.759437,0.48876 q -0.390498,0.28401 -0.690148,0.58452 -0.564432,0.56612 -0.564432,1.25018 0,0.2845 0.102029,0.48216 a 0.7917555,0.72794262 0 0 0 0.07763,0.11929 0.70503699,0.64821333 0 0 0 0.126247,0.12321 0.48387909,0.44488003 0 0 0 0.309918,0.10092 z m -14.701119,-8.56268 q 0.641414,-0.87278 1.064745,-1.82811 a 6.1441869,5.6489857 0 0 0 0.303778,-0.87232 4.5504134,4.1836651 0 0 0 0.119657,-0.9322 4.0372861,3.7118942 0 0 0 -0.01742,-0.35101 q -0.04359,-0.42128 -0.201148,-0.65151 a 0.93132616,0.85626433 0 0 0 -0.139641,-0.16083 0.57521577,0.52885528 0 0 0 -0.412035,-0.15762 0.82870069,0.76191013 0 0 0 -0.404873,0.1043 q -0.275024,0.14051 -0.557263,0.47082 a 3.7304358,3.429775 0 0 0 -0.08977,0.10894 2.7534415,2.5315232 0 0 0 -0.456663,0.96526 3.9120828,3.5967819 0 0 0 -0.08204,0.75672 5.3847584,4.9507646 0 0 0 0.204725,1.33652 6.0010244,5.5173617 0 0 0 0.0136,0.0435 3.8335745,3.524601 0 0 0 0.272479,0.63972 3.0115445,2.7688239 0 0 0 0.381766,0.5279 z m 29.325236,0 q 0.64142,-0.87278 1.06474,-1.82811 a 6.1441869,5.6489857 0 0 0 0.30377,-0.87232 4.5504134,4.1836651 0 0 0 0.11946,-0.9322 4.0372861,3.7118942 0 0 0 -0.0174,-0.35101 q -0.0436,-0.42128 -0.20114,-0.65151 a 0.93132616,0.85626433 0 0 0 -0.13963,-0.16083 0.57521577,0.52885528 0 0 0 -0.41204,-0.15762 0.82870069,0.76191013 0 0 0 -0.40487,0.1043 q -0.27501,0.14051 -0.55725,0.47082 a 3.7304358,3.429775 0 0 0 -0.0898,0.10894 2.7534415,2.5315232 0 0 0 -0.45666,0.96526 3.9120828,3.5967819 0 0 0 -0.082,0.75672 5.3847584,4.9507646 0 0 0 0.20472,1.33652 6.0010244,5.5173617 0 0 0 0.0136,0.0435 3.8335745,3.524601 0 0 0 0.27247,0.63972 3.0115445,2.7688239 0 0 0 0.38177,0.5279 z m 6.56804,3.0901 a 1.2592146,1.157726 0 0 0 0.21242,-0.0184 q 0.25606,-0.0406 0.60858,-0.17029 a 1.0324123,0.94920321 0 0 0 0.39819,-0.2708 q 0.23244,-0.24863 0.39203,-0.68266 a 3.7417247,3.4401541 0 0 0 0.006,-0.0143 q -1.07746,-0.1887 -1.91131,-0.77841 a 7.1509428,6.5746003 0 0 1 -0.56596,-0.44206 q -0.26376,-0.2307 -0.46286,-0.46091 a 3.6242186,3.3321184 0 0 1 -0.2155,-0.27646 0.50029917,0.45997671 0 0 0 -0.45618,0.27315 q -0.10318,0.19201 -0.10821,0.51991 a 2.6159233,2.4050884 0 0 0 0,0.0325 q 0,0.84919 0.55161,1.56864 a 1.752843,1.6115697 0 0 0 1.26486,0.70389 2.3260062,2.1385378 0 0 0 0.28735,0.016 z"
       vector-effect="non-scaling-stroke"
       id="path260"
       style="font-size:12px;fill:#f0cfbe;fill-rule:evenodd;stroke:#f0cfbe;stroke-width:0.246008mm;stroke-linecap:round" /></g></svg>
