<svg width="123.3" height="50" viewBox="0 0 123.3 50" xmlns="http://www.w3.org/2000/svg"><g id="svgGroup" stroke-linecap="round" fill-rule="evenodd" font-size="9pt" stroke="#B0BEC5" stroke-width="0.5mm" fill="#B0BEC5" style="stroke:#B0BEC5;stroke-width:0.5mm;fill:#B0BEC5"><path d="M 5.35 40.35 Q 3.8 40.35 2.4 39.925 A 4.243 4.243 0 0 1 0.63 38.847 A 5.78 5.78 0 0 1 0 38.1 A 94.602 94.602 0 0 1 0.556 35.606 A 119.691 119.691 0 0 1 1.225 32.925 A 215.859 215.859 0 0 1 2.694 27.59 A 235.985 235.985 0 0 1 2.8 27.225 Q 3.65 24.3 4.525 21.475 A 403.338 403.338 0 0 1 5.381 18.744 A 328.201 328.201 0 0 1 6.2 16.2 Q 6.888 14.095 7.464 12.432 A 143.11 143.11 0 0 1 7.65 11.9 Q 8.3 10.05 8.65 9.1 A 9.281 9.281 0 0 1 8.738 8.877 Q 8.841 8.622 8.997 8.268 A 43.19 43.19 0 0 1 9.15 7.925 A 12.765 12.765 0 0 1 9.731 6.798 A 14.935 14.935 0 0 1 10 6.35 Q 10.5 5.55 11.15 4.975 Q 11.8 4.4 12.55 4.4 A 2.123 2.123 0 0 1 13.403 4.586 A 3.013 3.013 0 0 1 13.95 4.9 A 127.981 127.981 0 0 0 12.394 8.688 A 164.082 164.082 0 0 0 10.825 12.85 Q 9.25 17.2 7.8 21.825 A 253.503 253.503 0 0 0 5.454 29.747 A 231.274 231.274 0 0 0 5.15 30.85 Q 3.95 35.25 3.15 38.85 Q 3.842 38.949 4.314 38.999 A 16.917 16.917 0 0 0 4.325 39 Q 4.8 39.05 5.3 39.05 Q 8.5 39.05 11.475 37.575 Q 14.45 36.1 17.025 33.525 A 29.054 29.054 0 0 0 21.428 27.832 A 32.221 32.221 0 0 0 21.55 27.625 Q 23.5 24.3 24.575 20.575 Q 25.65 16.85 25.65 13.15 A 20.778 20.778 0 0 0 25.475 10.368 Q 25.173 8.136 24.35 6.475 A 9.558 9.558 0 0 0 22.807 4.202 A 7.99 7.99 0 0 0 20.75 2.6 A 10.214 10.214 0 0 0 17.321 1.485 A 13.264 13.264 0 0 0 15.4 1.35 A 13.999 13.999 0 0 0 11.949 1.762 A 11.871 11.871 0 0 0 9.55 2.65 A 11.19 11.19 0 0 0 6.79 4.569 A 9.933 9.933 0 0 0 5.45 6.15 Q 3.95 8.35 3.95 11.1 A 8.121 8.121 0 0 0 3.964 11.594 Q 3.978 11.821 4.005 12.02 A 4.492 4.492 0 0 0 4.025 12.15 A 8.725 8.725 0 0 0 4.101 12.55 Q 4.141 12.738 4.187 12.903 A 5.276 5.276 0 0 0 4.2 12.95 A 5.205 5.205 0 0 1 3.392 12.892 Q 2.371 12.731 1.875 12.125 A 2.979 2.979 0 0 1 1.205 10.337 A 3.788 3.788 0 0 1 1.2 10.15 A 5.453 5.453 0 0 1 1.643 8.036 A 7.746 7.746 0 0 1 2.425 6.625 Q 3.65 4.85 5.825 3.35 Q 8 1.85 10.85 0.925 A 19.282 19.282 0 0 1 16.303 0.008 A 21.808 21.808 0 0 1 16.9 0 Q 21.4 0 24.125 1.825 Q 26.85 3.65 28.1 6.75 A 17.132 17.132 0 0 1 29.202 11.142 A 21.534 21.534 0 0 1 29.35 13.7 Q 29.35 18.05 28 22.025 Q 26.65 26 24.275 29.325 Q 21.9 32.65 18.85 35.125 Q 15.8 37.6 12.325 38.975 A 19.168 19.168 0 0 1 6.668 40.301 A 17.825 17.825 0 0 1 5.35 40.35 Z M 67.85 27.9 L 68.5 28.4 Q 67.75 30.65 66.1 32.5 A 22.149 22.149 0 0 1 63.155 35.266 A 20.105 20.105 0 0 1 62.575 35.7 A 30.447 30.447 0 0 1 61.105 36.698 Q 60.361 37.17 59.677 37.533 A 16.118 16.118 0 0 1 59.15 37.8 Q 57.75 41.15 56.2 43.925 A 26.038 26.038 0 0 1 55.02 45.848 Q 54.022 47.319 52.975 48.35 A 6.686 6.686 0 0 1 51.756 49.315 A 4.482 4.482 0 0 1 49.4 50 Q 48.3 50 47.4 49.325 Q 46.609 48.732 46.513 47.462 A 4.821 4.821 0 0 1 46.5 47.1 Q 46.5 45.6 47.425 44.325 A 10.217 10.217 0 0 1 48.865 42.738 A 12.656 12.656 0 0 1 49.8 41.975 A 23.397 23.397 0 0 1 52.443 40.286 A 26.297 26.297 0 0 1 52.975 40 A 907.67 907.67 0 0 1 54.656 39.125 A 770.566 770.566 0 0 1 56.25 38.3 A 46.267 46.267 0 0 0 57.096 36.005 A 55.135 55.135 0 0 0 57.575 34.525 A 69.092 69.092 0 0 0 58.194 32.394 A 89.691 89.691 0 0 0 58.8 30.05 A 28.775 28.775 0 0 1 56.856 32.569 A 21.584 21.584 0 0 1 54.825 34.625 Q 53.186 36.066 51.532 36.37 A 4.885 4.885 0 0 1 50.65 36.45 Q 48.85 36.45 47.875 35.1 A 4.908 4.908 0 0 1 47.1 33.384 Q 46.9 32.574 46.9 31.6 Q 46.9 29 48.175 26.65 Q 49.45 24.3 51.5 22.5 A 17.729 17.729 0 0 1 54.716 20.236 A 15.911 15.911 0 0 1 55.85 19.675 A 13.075 13.075 0 0 1 57.788 18.979 Q 58.902 18.681 59.937 18.653 A 7.901 7.901 0 0 1 60.15 18.65 Q 61.382 18.65 62.018 18.993 A 1.577 1.577 0 0 1 62.225 19.125 A 1.887 1.887 0 0 1 62.568 19.456 A 1.252 1.252 0 0 1 62.85 20.25 A 1.301 1.301 0 0 1 62.821 20.534 Q 62.778 20.727 62.671 20.868 A 0.774 0.774 0 0 1 62.6 20.95 A 5.56 5.56 0 0 1 62.498 21.05 Q 62.357 21.184 62.279 21.234 A 0.325 0.325 0 0 1 62.25 21.25 A 1.337 1.337 0 0 0 61.682 20.75 A 1.75 1.75 0 0 0 61.5 20.675 A 2.796 2.796 0 0 0 61.052 20.562 Q 60.829 20.523 60.572 20.509 A 5.745 5.745 0 0 0 60.25 20.5 A 6.766 6.766 0 0 0 57.164 21.259 A 8.403 8.403 0 0 0 56.475 21.65 A 12.517 12.517 0 0 0 53.338 24.488 A 14.089 14.089 0 0 0 53.25 24.6 A 17.49 17.49 0 0 0 51.473 27.371 A 15.521 15.521 0 0 0 51.025 28.325 A 11.619 11.619 0 0 0 50.491 29.836 Q 50.2 30.9 50.2 31.85 A 4.86 4.86 0 0 0 50.244 32.528 Q 50.293 32.873 50.395 33.153 A 1.986 1.986 0 0 0 50.675 33.675 Q 51.15 34.3 51.95 34.3 A 2.844 2.844 0 0 0 52.989 34.083 Q 53.837 33.749 54.839 32.902 A 13.575 13.575 0 0 0 55.425 32.375 Q 57.45 30.45 59.35 27.7 Q 59.5 27 59.625 26.45 A 116.568 116.568 0 0 1 59.692 26.156 Q 59.793 25.719 59.93 25.134 A 348.822 348.822 0 0 1 59.95 25.05 Q 60.059 24.542 60.392 23.915 A 8.35 8.35 0 0 1 60.675 23.425 A 1.883 1.883 0 0 1 62.055 22.533 A 2.917 2.917 0 0 1 62.5 22.5 Q 62.75 22.5 63 22.525 Q 63.234 22.549 63.512 22.638 A 3.535 3.535 0 0 1 63.55 22.65 A 4.583 4.583 0 0 1 63.524 23.098 Q 63.439 23.948 63.075 25.575 A 48.36 48.36 0 0 1 62.663 27.267 Q 62.272 28.76 61.725 30.525 A 91.112 91.112 0 0 1 60.258 34.861 A 103.13 103.13 0 0 1 59.7 36.35 A 16.829 16.829 0 0 0 62.133 34.897 A 19.458 19.458 0 0 0 62.925 34.3 Q 64.5 33.05 65.8 31.425 Q 67.1 29.8 67.85 27.9 Z M 87.3 27.9 L 87.95 28.4 Q 87.2 30.65 85.55 32.5 A 22.149 22.149 0 0 1 82.605 35.266 A 20.105 20.105 0 0 1 82.025 35.7 A 30.447 30.447 0 0 1 80.555 36.698 Q 79.811 37.17 79.127 37.533 A 16.118 16.118 0 0 1 78.6 37.8 Q 77.2 41.15 75.65 43.925 A 26.038 26.038 0 0 1 74.47 45.848 Q 73.472 47.319 72.425 48.35 A 6.686 6.686 0 0 1 71.206 49.315 A 4.482 4.482 0 0 1 68.85 50 Q 67.75 50 66.85 49.325 Q 66.059 48.732 65.963 47.462 A 4.821 4.821 0 0 1 65.95 47.1 Q 65.95 45.6 66.875 44.325 A 10.217 10.217 0 0 1 68.315 42.738 A 12.656 12.656 0 0 1 69.25 41.975 A 23.397 23.397 0 0 1 71.893 40.286 A 26.297 26.297 0 0 1 72.425 40 A 907.67 907.67 0 0 1 74.106 39.125 A 770.566 770.566 0 0 1 75.7 38.3 A 46.267 46.267 0 0 0 76.546 36.005 A 55.135 55.135 0 0 0 77.025 34.525 A 69.092 69.092 0 0 0 77.644 32.394 A 89.691 89.691 0 0 0 78.25 30.05 A 28.775 28.775 0 0 1 76.306 32.569 A 21.584 21.584 0 0 1 74.275 34.625 Q 72.636 36.066 70.982 36.37 A 4.885 4.885 0 0 1 70.1 36.45 Q 68.3 36.45 67.325 35.1 A 4.908 4.908 0 0 1 66.55 33.384 Q 66.35 32.574 66.35 31.6 Q 66.35 29 67.625 26.65 Q 68.9 24.3 70.95 22.5 A 17.729 17.729 0 0 1 74.166 20.236 A 15.911 15.911 0 0 1 75.3 19.675 A 13.075 13.075 0 0 1 77.238 18.979 Q 78.352 18.681 79.387 18.653 A 7.901 7.901 0 0 1 79.6 18.65 Q 80.832 18.65 81.468 18.993 A 1.577 1.577 0 0 1 81.675 19.125 A 1.887 1.887 0 0 1 82.018 19.456 A 1.252 1.252 0 0 1 82.3 20.25 A 1.301 1.301 0 0 1 82.271 20.534 Q 82.228 20.727 82.121 20.868 A 0.774 0.774 0 0 1 82.05 20.95 A 5.56 5.56 0 0 1 81.948 21.05 Q 81.807 21.184 81.729 21.234 A 0.325 0.325 0 0 1 81.7 21.25 A 1.337 1.337 0 0 0 81.132 20.75 A 1.75 1.75 0 0 0 80.95 20.675 A 2.796 2.796 0 0 0 80.502 20.562 Q 80.279 20.523 80.022 20.509 A 5.745 5.745 0 0 0 79.7 20.5 A 6.766 6.766 0 0 0 76.614 21.259 A 8.403 8.403 0 0 0 75.925 21.65 A 12.517 12.517 0 0 0 72.788 24.488 A 14.089 14.089 0 0 0 72.7 24.6 A 17.49 17.49 0 0 0 70.923 27.371 A 15.521 15.521 0 0 0 70.475 28.325 A 11.619 11.619 0 0 0 69.941 29.836 Q 69.65 30.9 69.65 31.85 A 4.86 4.86 0 0 0 69.694 32.528 Q 69.743 32.873 69.845 33.153 A 1.986 1.986 0 0 0 70.125 33.675 Q 70.6 34.3 71.4 34.3 A 2.844 2.844 0 0 0 72.439 34.083 Q 73.287 33.749 74.289 32.902 A 13.575 13.575 0 0 0 74.875 32.375 Q 76.9 30.45 78.8 27.7 Q 78.95 27 79.075 26.45 A 116.568 116.568 0 0 1 79.142 26.156 Q 79.243 25.719 79.38 25.134 A 348.822 348.822 0 0 1 79.4 25.05 Q 79.509 24.542 79.842 23.915 A 8.35 8.35 0 0 1 80.125 23.425 A 1.883 1.883 0 0 1 81.505 22.533 A 2.917 2.917 0 0 1 81.95 22.5 Q 82.2 22.5 82.45 22.525 Q 82.684 22.549 82.962 22.638 A 3.535 3.535 0 0 1 83 22.65 A 4.583 4.583 0 0 1 82.974 23.098 Q 82.889 23.948 82.525 25.575 A 48.36 48.36 0 0 1 82.113 27.267 Q 81.722 28.76 81.175 30.525 A 91.112 91.112 0 0 1 79.708 34.861 A 103.13 103.13 0 0 1 79.15 36.35 A 16.829 16.829 0 0 0 81.583 34.897 A 19.458 19.458 0 0 0 82.375 34.3 Q 83.95 33.05 85.25 31.425 Q 86.55 29.8 87.3 27.9 Z M 48.45 28.05 L 49.05 28.55 A 8.221 8.221 0 0 1 48.163 30.148 A 5.689 5.689 0 0 1 46.225 31.875 Q 44.499 32.797 42.929 32.847 A 5.636 5.636 0 0 1 42.75 32.85 A 6.147 6.147 0 0 1 41.575 32.74 A 5.687 5.687 0 0 1 41.5 32.725 Q 40.9 32.6 40.35 32.35 A 19.668 19.668 0 0 1 38.038 34.925 A 16.684 16.684 0 0 1 36.625 36.1 A 9.141 9.141 0 0 1 35.201 36.977 Q 34.326 37.404 33.475 37.539 A 4.964 4.964 0 0 1 32.7 37.6 A 5.48 5.48 0 0 1 31.59 37.495 Q 30.926 37.358 30.432 37.04 A 2.714 2.714 0 0 1 29.65 36.275 Q 28.75 34.95 28.75 33.05 A 10.546 10.546 0 0 1 29.02 30.72 A 12.53 12.53 0 0 1 29.25 29.85 Q 29.75 28.2 30.575 26.75 A 10.67 10.67 0 0 1 31.392 25.512 A 7.842 7.842 0 0 1 32.425 24.4 A 4.349 4.349 0 0 1 33.133 23.888 Q 33.811 23.5 34.5 23.5 Q 34.75 23.5 35.025 23.575 A 4.871 4.871 0 0 1 35.519 23.738 A 4.486 4.486 0 0 1 35.55 23.75 Q 35.1 24.15 34.475 25.225 A 16.643 16.643 0 0 0 33.8 26.52 A 21.633 21.633 0 0 0 33.3 27.675 A 26.342 26.342 0 0 0 32.399 30.316 A 24.26 24.26 0 0 0 32.375 30.4 Q 32 31.75 32 32.7 Q 32 34.013 32.383 34.694 A 1.724 1.724 0 0 0 32.5 34.875 A 1.757 1.757 0 0 0 32.946 35.306 A 1.523 1.523 0 0 0 33.8 35.55 Q 34.85 35.55 36.3 34.425 A 14.982 14.982 0 0 0 37.827 33.054 A 20.263 20.263 0 0 0 39.15 31.55 A 7.252 7.252 0 0 1 37.373 29.364 A 8.971 8.971 0 0 1 36.975 28.525 Q 36.2 26.65 36.2 24.7 A 8.39 8.39 0 0 1 36.672 21.874 A 7.987 7.987 0 0 1 36.775 21.6 A 5.93 5.93 0 0 1 37.587 20.152 A 5.092 5.092 0 0 1 38.45 19.275 A 4.016 4.016 0 0 1 40.661 18.419 A 5.168 5.168 0 0 1 41.1 18.4 Q 43.15 18.4 43.85 19.5 Q 44.521 20.554 44.549 22.113 A 7.618 7.618 0 0 1 44.55 22.25 A 9.477 9.477 0 0 1 44.341 24.172 Q 44.105 25.314 43.6 26.575 Q 42.65 28.95 41.2 31.15 Q 42.1 31.65 43.1 31.65 Q 43.792 31.65 44.634 31.407 A 8.455 8.455 0 0 0 44.9 31.325 A 5.453 5.453 0 0 0 46.048 30.791 A 7.238 7.238 0 0 0 46.875 30.2 A 5.265 5.265 0 0 0 47.982 28.931 A 6.844 6.844 0 0 0 48.45 28.05 Z M 105.6 28.05 L 106.2 28.55 A 8.221 8.221 0 0 1 105.313 30.148 A 5.689 5.689 0 0 1 103.375 31.875 Q 101.649 32.797 100.079 32.847 A 5.636 5.636 0 0 1 99.9 32.85 A 6.147 6.147 0 0 1 98.725 32.74 A 5.687 5.687 0 0 1 98.65 32.725 Q 98.05 32.6 97.5 32.35 A 19.668 19.668 0 0 1 95.188 34.925 A 16.684 16.684 0 0 1 93.775 36.1 A 9.141 9.141 0 0 1 92.351 36.977 Q 91.476 37.404 90.625 37.539 A 4.964 4.964 0 0 1 89.85 37.6 A 5.48 5.48 0 0 1 88.74 37.495 Q 88.076 37.358 87.582 37.04 A 2.714 2.714 0 0 1 86.8 36.275 Q 85.9 34.95 85.9 33.05 A 10.546 10.546 0 0 1 86.17 30.72 A 12.53 12.53 0 0 1 86.4 29.85 Q 86.9 28.2 87.725 26.75 A 10.67 10.67 0 0 1 88.542 25.512 A 7.842 7.842 0 0 1 89.575 24.4 A 4.349 4.349 0 0 1 90.283 23.888 Q 90.961 23.5 91.65 23.5 Q 91.9 23.5 92.175 23.575 A 4.871 4.871 0 0 1 92.669 23.738 A 4.486 4.486 0 0 1 92.7 23.75 Q 92.25 24.15 91.625 25.225 A 16.643 16.643 0 0 0 90.95 26.52 A 21.633 21.633 0 0 0 90.45 27.675 A 26.342 26.342 0 0 0 89.549 30.316 A 24.26 24.26 0 0 0 89.525 30.4 Q 89.15 31.75 89.15 32.7 Q 89.15 34.013 89.533 34.694 A 1.724 1.724 0 0 0 89.65 34.875 A 1.757 1.757 0 0 0 90.096 35.306 A 1.523 1.523 0 0 0 90.95 35.55 Q 92 35.55 93.45 34.425 A 14.982 14.982 0 0 0 94.977 33.054 A 20.263 20.263 0 0 0 96.3 31.55 A 7.252 7.252 0 0 1 94.523 29.364 A 8.971 8.971 0 0 1 94.125 28.525 Q 93.35 26.65 93.35 24.7 A 8.39 8.39 0 0 1 93.822 21.874 A 7.987 7.987 0 0 1 93.925 21.6 A 5.93 5.93 0 0 1 94.737 20.152 A 5.092 5.092 0 0 1 95.6 19.275 A 4.016 4.016 0 0 1 97.811 18.419 A 5.168 5.168 0 0 1 98.25 18.4 Q 100.3 18.4 101 19.5 Q 101.671 20.554 101.699 22.113 A 7.618 7.618 0 0 1 101.7 22.25 A 9.477 9.477 0 0 1 101.491 24.172 Q 101.255 25.314 100.75 26.575 Q 99.8 28.95 98.35 31.15 Q 99.25 31.65 100.25 31.65 Q 100.942 31.65 101.784 31.407 A 8.455 8.455 0 0 0 102.05 31.325 A 5.453 5.453 0 0 0 103.198 30.791 A 7.238 7.238 0 0 0 104.025 30.2 A 5.265 5.265 0 0 0 105.132 28.931 A 6.844 6.844 0 0 0 105.6 28.05 Z M 111.8 20.25 L 111.8 19.65 A 8.754 8.754 0 0 1 111.839 18.792 Q 111.956 17.606 112.425 17.025 Q 112.815 16.542 113.234 16.36 A 1.285 1.285 0 0 1 113.75 16.25 A 1.275 1.275 0 0 1 113.975 16.269 Q 114.211 16.311 114.35 16.45 Q 114.55 16.65 114.55 16.9 Q 114.55 17.15 114.4 17.7 Q 114.25 18.25 114.25 19.1 Q 114.25 20.75 114.9 22.675 Q 115.55 24.6 116.2 26.725 Q 116.85 28.85 116.85 31.15 Q 116.85 31.8 116.775 32.425 A 8.509 8.509 0 0 1 116.628 33.285 A 7.343 7.343 0 0 1 116.55 33.6 A 6.697 6.697 0 0 0 119.063 32.602 A 8.428 8.428 0 0 0 119.85 32.025 A 8.306 8.306 0 0 0 120.951 30.912 Q 121.436 30.328 121.911 29.588 A 20.52 20.52 0 0 0 122.85 27.95 L 123.3 28.45 A 10.549 10.549 0 0 1 122.371 30.466 A 7.516 7.516 0 0 1 120.45 32.625 Q 118.55 34.05 116.3 34.4 A 6.85 6.85 0 0 1 115.442 36.036 A 5.352 5.352 0 0 1 113.775 37.55 A 7.477 7.477 0 0 1 110.332 38.54 A 8.978 8.978 0 0 1 109.9 38.55 A 8.724 8.724 0 0 1 108.402 38.429 Q 107.078 38.198 106.175 37.525 Q 104.8 36.5 104.225 35 A 8.516 8.516 0 0 1 103.678 32.656 A 7.85 7.85 0 0 1 103.65 32 A 9.088 9.088 0 0 1 103.685 31.171 Q 103.762 30.335 104.007 29.791 A 2.488 2.488 0 0 1 104.05 29.7 A 3.961 3.961 0 0 1 104.404 29.116 Q 104.684 28.738 105.025 28.5 Q 105.581 28.114 106.09 27.914 A 3.775 3.775 0 0 1 106.125 27.9 A 4.423 4.423 0 0 0 106.367 27.8 Q 106.614 27.689 106.761 27.577 A 0.88 0.88 0 0 0 106.85 27.5 Q 108.35 25.85 109.6 24.05 Q 110.85 22.25 111.8 20.25 Z M 113.4 33.55 Q 113.5 33.05 113.55 32.5 Q 113.588 32.079 113.597 31.541 A 20.451 20.451 0 0 0 113.6 31.2 Q 113.6 28.85 113.025 26.525 A 100.11 100.11 0 0 1 112.494 24.269 A 81.538 81.538 0 0 1 112.05 22.15 Q 110.9 24.05 109.625 25.775 Q 108.599 27.163 107.654 28.179 A 18.159 18.159 0 0 1 107.2 28.65 A 8.423 8.423 0 0 0 108.381 30.48 A 11.124 11.124 0 0 0 109.525 31.65 A 8.07 8.07 0 0 0 112.428 33.288 A 10.008 10.008 0 0 0 113.4 33.55 Z M 49.25 48.4 A 1.486 1.486 0 0 0 49.86 48.248 Q 50.728 47.852 51.975 46.425 Q 53.7 44.45 55.7 39.65 Q 53.7 40.65 51.975 41.725 A 16.112 16.112 0 0 0 50.495 42.761 Q 49.734 43.363 49.15 44 Q 48.05 45.2 48.05 46.65 Q 48.05 47.253 48.249 47.672 A 1.543 1.543 0 0 0 48.4 47.925 A 1.374 1.374 0 0 0 48.646 48.186 A 0.943 0.943 0 0 0 49.25 48.4 Z M 68.7 48.4 A 1.486 1.486 0 0 0 69.31 48.248 Q 70.178 47.852 71.425 46.425 Q 73.15 44.45 75.15 39.65 Q 73.15 40.65 71.425 41.725 A 16.112 16.112 0 0 0 69.945 42.761 Q 69.184 43.363 68.6 44 Q 67.5 45.2 67.5 46.65 Q 67.5 47.253 67.699 47.672 A 1.543 1.543 0 0 0 67.85 47.925 A 1.374 1.374 0 0 0 68.096 48.186 A 0.943 0.943 0 0 0 68.7 48.4 Z M 40.05 30.25 Q 41.3 28.4 42.125 26.375 A 11.974 11.974 0 0 0 42.717 24.526 A 8.868 8.868 0 0 0 42.95 22.55 A 7.868 7.868 0 0 0 42.917 21.806 Q 42.832 20.913 42.525 20.425 A 1.815 1.815 0 0 0 42.253 20.084 A 1.121 1.121 0 0 0 41.45 19.75 A 1.615 1.615 0 0 0 40.661 19.971 Q 40.125 20.269 39.575 20.969 A 7.27 7.27 0 0 0 39.4 21.2 A 5.366 5.366 0 0 0 38.51 23.246 A 7.624 7.624 0 0 0 38.35 24.85 A 10.494 10.494 0 0 0 38.749 27.683 A 11.695 11.695 0 0 0 38.775 27.775 A 7.471 7.471 0 0 0 39.306 29.131 A 5.869 5.869 0 0 0 40.05 30.25 Z M 97.2 30.25 Q 98.45 28.4 99.275 26.375 A 11.974 11.974 0 0 0 99.867 24.526 A 8.868 8.868 0 0 0 100.1 22.55 A 7.868 7.868 0 0 0 100.067 21.806 Q 99.982 20.913 99.675 20.425 A 1.815 1.815 0 0 0 99.403 20.084 A 1.121 1.121 0 0 0 98.6 19.75 A 1.615 1.615 0 0 0 97.811 19.971 Q 97.275 20.269 96.725 20.969 A 7.27 7.27 0 0 0 96.55 21.2 A 5.366 5.366 0 0 0 95.66 23.246 A 7.624 7.624 0 0 0 95.5 24.85 A 10.494 10.494 0 0 0 95.899 27.683 A 11.695 11.695 0 0 0 95.925 27.775 A 7.471 7.471 0 0 0 96.456 29.131 A 5.869 5.869 0 0 0 97.2 30.25 Z M 110 36.8 A 2.454 2.454 0 0 0 110.414 36.761 Q 110.913 36.675 111.6 36.4 A 2.012 2.012 0 0 0 112.376 35.826 Q 112.829 35.299 113.14 34.379 A 7.292 7.292 0 0 0 113.15 34.35 Q 111.05 33.95 109.425 32.7 A 13.936 13.936 0 0 1 108.322 31.763 Q 107.808 31.274 107.42 30.786 A 7.063 7.063 0 0 1 107 30.2 A 0.975 0.975 0 0 0 106.111 30.779 Q 105.91 31.186 105.9 31.881 A 5.098 5.098 0 0 0 105.9 31.95 Q 105.9 33.75 106.975 35.275 A 3.416 3.416 0 0 0 109.44 36.767 A 4.533 4.533 0 0 0 110 36.8 Z" vector-effect="non-scaling-stroke"/></g></svg>