<?xml version="1.0" encoding="UTF-8"?>
<svg xmlns="http://www.w3.org/2000/svg" xmlns:xlink="http://www.w3.org/1999/xlink" width="150px" height="150px" viewBox="0 0 150 150" version="1.1">
<g id="surface1">
<path style=" stroke:none;fill-rule:nonzero;fill:rgb(0%,0%,0%);fill-opacity:1;" d="M 142.574219 53.707031 L 77.367188 0.839844 C 75.988281 -0.28125 74.011719 -0.28125 72.632812 0.839844 L 7.425781 53.707031 C 6.191406 54.710938 5.71875 56.382812 6.253906 57.882812 C 6.785156 59.382812 8.203125 60.386719 9.792969 60.386719 L 20.898438 60.386719 L 20.898438 131.675781 L 13.367188 131.675781 C 11.292969 131.675781 9.609375 133.355469 9.609375 135.433594 L 9.609375 146.242188 C 9.609375 148.316406 11.292969 150 13.367188 150 L 136.632812 150 C 138.707031 150 140.390625 148.316406 140.390625 146.242188 L 140.390625 135.433594 C 140.390625 133.355469 138.707031 131.675781 136.632812 131.675781 L 129.339844 131.675781 L 129.339844 60.386719 L 140.207031 60.386719 C 141.796875 60.386719 143.214844 59.382812 143.746094 57.882812 C 144.28125 56.382812 143.808594 54.710938 142.574219 53.707031 Z M 75.117188 74.371094 C 86.398438 74.371094 95.574219 84.183594 95.574219 96.242188 L 95.574219 131.675781 L 54.660156 131.675781 L 54.660156 96.242188 C 54.664062 84.183594 63.839844 74.371094 75.117188 74.371094 Z M 17.125 139.191406 L 45.339844 139.191406 L 45.339844 142.484375 L 17.125 142.484375 Z M 52.855469 142.484375 L 52.855469 139.191406 L 97.144531 139.191406 L 97.144531 142.484375 Z M 132.875 142.484375 L 104.660156 142.484375 L 104.660156 139.191406 L 132.875 139.191406 Z M 132.875 142.484375 "/>
</g>
</svg>
